<?xml version="1.0" encoding="utf-8" standalone="no"?>
<!DOCTYPE svg PUBLIC "-//W3C//DTD SVG 1.1//EN"
  "http://www.w3.org/Graphics/SVG/1.1/DTD/svg11.dtd">
<!-- Created with matplotlib (http://matplotlib.org/) -->
<svg height="304.289375pt" version="1.1" viewBox="0 0 440.00625 304.289375" width="440.00625pt" xmlns="http://www.w3.org/2000/svg" xmlns:xlink="http://www.w3.org/1999/xlink">
 <defs>
  <style type="text/css">
*{stroke-linecap:butt;stroke-linejoin:round;}
  </style>
 </defs>
 <g id="figure_1">
  <g id="patch_1">
   <path d="M 0 304.289375 
L 440.00625 304.289375 
L 440.00625 0 
L 0 0 
z
" style="fill:#ffffff;"/>
  </g>
  <g id="axes_1">
   <g id="patch_2">
    <path d="M 38.70625 145.33483 
L 201.45625 145.33483 
L 201.45625 21.789375 
L 38.70625 21.789375 
z
" style="fill:#ffffff;"/>
   </g>
   <g id="matplotlib.axis_1"/>
   <g id="matplotlib.axis_2">
    <g id="ytick_1">
     <g id="line2d_1">
      <defs>
       <path d="M 0 0 
L -3.5 0 
" id="m80ba7110c2" style="stroke:#000000;stroke-width:0.8;"/>
      </defs>
      <g>
       <use style="stroke:#000000;stroke-width:0.8;" x="38.70625" xlink:href="#m80ba7110c2" y="121.422806"/>
      </g>
     </g>
     <g id="text_1">
      <!-- 0 -->
      <defs>
       <path d="M 4.15625 35.296875 
Q 4.15625 48 6.765625 55.734375 
Q 9.375 63.484375 14.515625 67.671875 
Q 19.671875 71.875 27.484375 71.875 
Q 33.25 71.875 37.59375 69.546875 
Q 41.9375 67.234375 44.765625 62.859375 
Q 47.609375 58.5 49.21875 52.21875 
Q 50.828125 45.953125 50.828125 35.296875 
Q 50.828125 22.703125 48.234375 14.96875 
Q 45.65625 7.234375 40.5 3 
Q 35.359375 -1.21875 27.484375 -1.21875 
Q 17.140625 -1.21875 11.234375 6.203125 
Q 4.15625 15.140625 4.15625 35.296875 
z
M 13.1875 35.296875 
Q 13.1875 17.671875 17.3125 11.828125 
Q 21.4375 6 27.484375 6 
Q 33.546875 6 37.671875 11.859375 
Q 41.796875 17.71875 41.796875 35.296875 
Q 41.796875 52.984375 37.671875 58.78125 
Q 33.546875 64.59375 27.390625 64.59375 
Q 21.34375 64.59375 17.71875 59.46875 
Q 13.1875 52.9375 13.1875 35.296875 
z
" id="ArialMT-30"/>
      </defs>
      <g transform="translate(26.145313 125.001712)scale(0.1 -0.1)">
       <use xlink:href="#ArialMT-30"/>
      </g>
     </g>
    </g>
    <g id="ytick_2">
     <g id="line2d_2">
      <g>
       <use style="stroke:#000000;stroke-width:0.8;" x="38.70625" xlink:href="#m80ba7110c2" y="81.569434"/>
      </g>
     </g>
     <g id="text_2">
      <!-- 10 -->
      <defs>
       <path d="M 37.25 0 
L 28.46875 0 
L 28.46875 56 
Q 25.296875 52.984375 20.140625 49.953125 
Q 14.984375 46.921875 10.890625 45.40625 
L 10.890625 53.90625 
Q 18.265625 57.375 23.78125 62.296875 
Q 29.296875 67.234375 31.59375 71.875 
L 37.25 71.875 
z
" id="ArialMT-31"/>
      </defs>
      <g transform="translate(20.584375 85.14834)scale(0.1 -0.1)">
       <use xlink:href="#ArialMT-31"/>
       <use x="55.615234" xlink:href="#ArialMT-30"/>
      </g>
     </g>
    </g>
    <g id="ytick_3">
     <g id="line2d_3">
      <g>
       <use style="stroke:#000000;stroke-width:0.8;" x="38.70625" xlink:href="#m80ba7110c2" y="41.716061"/>
      </g>
     </g>
     <g id="text_3">
      <!-- 20 -->
      <defs>
       <path d="M 50.34375 8.453125 
L 50.34375 0 
L 3.03125 0 
Q 2.9375 3.171875 4.046875 6.109375 
Q 5.859375 10.9375 9.828125 15.625 
Q 13.8125 20.3125 21.34375 26.46875 
Q 33.015625 36.03125 37.109375 41.625 
Q 41.21875 47.21875 41.21875 52.203125 
Q 41.21875 57.421875 37.46875 61 
Q 33.734375 64.59375 27.734375 64.59375 
Q 21.390625 64.59375 17.578125 60.78125 
Q 13.765625 56.984375 13.71875 50.25 
L 4.6875 51.171875 
Q 5.609375 61.28125 11.65625 66.578125 
Q 17.71875 71.875 27.9375 71.875 
Q 38.234375 71.875 44.234375 66.15625 
Q 50.25 60.453125 50.25 52 
Q 50.25 47.703125 48.484375 43.546875 
Q 46.734375 39.40625 42.65625 34.8125 
Q 38.578125 30.21875 29.109375 22.21875 
Q 21.1875 15.578125 18.9375 13.203125 
Q 16.703125 10.84375 15.234375 8.453125 
z
" id="ArialMT-32"/>
      </defs>
      <g transform="translate(20.584375 45.294967)scale(0.1 -0.1)">
       <use xlink:href="#ArialMT-32"/>
       <use x="55.615234" xlink:href="#ArialMT-30"/>
      </g>
     </g>
    </g>
   </g>
   <g id="line2d_4">
    <path clip-path="url(#paac5567063)" d="M 46.103977 121.29137 
L 46.527007 121.420655 
L 46.738521 121.494815 
L 46.950036 121.292343 
L 47.373066 121.500592 
L 47.796095 121.433182 
L 48.00761 121.264522 
L 48.219124 121.577944 
L 48.642154 121.526011 
L 49.065183 121.386418 
L 49.276698 121.300705 
L 49.699727 121.504697 
L 50.122757 121.374834 
L 50.334272 121.606677 
L 50.545786 121.290853 
L 50.757301 121.40831 
L 50.968816 121.307303 
L 51.391845 121.501413 
L 51.60336 121.290701 
L 51.814875 121.706256 
L 52.026389 121.415851 
L 52.237904 121.397547 
L 52.449419 121.240258 
L 53.295478 121.668644 
L 53.506992 121.416794 
L 53.930022 121.356803 
L 54.353051 121.733621 
L 54.564566 121.356195 
L 54.776081 121.294319 
L 55.19911 121.350844 
L 55.62214 121.338742 
L 55.833654 121.498524 
L 56.045169 121.237369 
L 56.256684 121.677462 
L 56.679713 121.253211 
L 57.525772 121.54018 
L 57.737287 121.106777 
L 57.948801 121.489859 
L 58.160316 121.336006 
L 58.371831 121.465504 
L 58.583346 121.271241 
L 58.79486 121.449601 
L 59.852434 121.302803 
L 60.063949 121.570677 
L 60.275463 121.358962 
L 60.486978 121.530268 
L 60.698493 121.350175 
L 62.390611 121.279603 
L 62.81364 121.555292 
L 63.236669 121.299032 
L 63.448184 121.229738 
L 64.082728 121.557298 
L 64.294243 121.436831 
L 64.505758 121.654536 
L 64.928787 121.347347 
L 65.351817 121.200001 
L 65.563331 121.59041 
L 65.986361 121.379091 
L 66.197876 121.38581 
L 66.40939 121.267897 
L 66.620905 120.804635 
L 66.83242 119.599566 
L 67.255449 111.158819 
L 67.678479 107.318 
L 67.889993 106.857658 
L 68.101508 106.753214 
L 68.313023 107.138819 
L 68.524537 108.255408 
L 68.947567 112.060683 
L 69.582111 116.005003 
L 70.216655 118.782595 
L 70.639685 119.468 
L 71.485743 120.35229 
L 71.697258 120.288164 
L 71.908773 120.471784 
L 72.331802 120.514504 
L 72.543317 120.810048 
L 72.754832 120.426723 
L 73.177861 120.750696 
L 73.600891 120.851004 
L 73.812405 120.722601 
L 74.02392 120.984455 
L 74.235435 120.764865 
L 74.658464 120.91063 
L 74.869979 120.824582 
L 75.081494 121.063722 
L 75.293008 120.917441 
L 75.504523 120.612137 
L 75.716038 120.848237 
L 75.927553 121.260964 
L 76.139067 120.880406 
L 76.350582 121.151413 
L 76.562097 121.045084 
L 76.773611 121.182882 
L 77.196641 120.829659 
L 77.408156 119.159322 
L 77.831185 111.218141 
L 78.254214 108.507259 
L 78.465729 107.988385 
L 78.888759 108.712832 
L 79.100273 110.266381 
L 79.523303 114.306662 
L 79.734817 115.176295 
L 80.157847 117.530336 
L 80.369362 118.091412 
L 80.580876 118.320763 
L 81.003906 119.645053 
L 81.215421 119.632769 
L 81.426935 119.74904 
L 81.63845 120.089676 
L 81.849965 120.157541 
L 82.061479 120.080219 
L 82.484509 120.45123 
L 82.696024 120.243255 
L 83.119053 120.730689 
L 83.330568 120.542417 
L 83.753597 120.653793 
L 83.965112 120.820173 
L 84.176627 120.73081 
L 84.388141 120.930424 
L 84.811171 120.597025 
L 85.445715 120.81695 
L 85.65723 120.706212 
L 86.080259 120.986948 
L 86.714803 120.855808 
L 86.926318 120.76903 
L 87.137833 120.475524 
L 87.560862 121.22691 
L 87.772377 120.727709 
L 87.983891 119.78501 
L 88.406921 112.270817 
L 88.82995 108.896665 
L 89.041465 109.024734 
L 89.25298 108.80563 
L 89.464495 110.212685 
L 89.887524 114.049703 
L 90.733583 117.673638 
L 91.156612 118.445152 
L 91.368127 119.346651 
L 91.791156 119.931718 
L 92.002671 119.847737 
L 92.214186 120.009648 
L 92.425701 119.934394 
L 92.84873 120.439889 
L 93.060245 120.170798 
L 93.483274 120.291296 
L 93.906304 120.518974 
L 94.752362 121.012185 
L 95.175392 120.610525 
L 95.386907 120.779794 
L 95.598421 120.626732 
L 95.809936 120.82373 
L 96.021451 120.516298 
L 96.44448 120.873565 
L 96.655995 120.590366 
L 96.86751 120.799892 
L 97.079024 120.702776 
L 97.502054 120.971411 
L 97.713569 120.850274 
L 98.136598 120.920147 
L 98.559627 119.944032 
L 98.982657 112.808907 
L 99.405686 109.961655 
L 99.617201 109.512654 
L 100.04023 111.022389 
L 100.251745 113.766078 
L 100.886289 116.817626 
L 101.520833 118.567779 
L 101.732348 119.054544 
L 101.943863 119.208001 
L 102.366892 119.791274 
L 102.789922 120.005543 
L 103.001436 120.101321 
L 103.212951 120.053158 
L 103.424466 120.248545 
L 103.635981 120.150061 
L 103.847495 120.344931 
L 104.05901 120.312914 
L 104.270525 120.60937 
L 104.48204 120.559109 
L 104.693554 120.796517 
L 104.905069 120.555309 
L 105.116584 120.543055 
L 105.328098 120.700435 
L 105.962643 120.580789 
L 106.174157 120.763101 
L 106.385672 120.630958 
L 106.597187 120.928752 
L 106.808701 120.537035 
L 107.020216 120.848876 
L 107.231731 120.782591 
L 107.443246 120.937721 
L 107.65476 120.839116 
L 107.866275 121.055118 
L 108.289304 120.990293 
L 108.500819 120.798858 
L 108.712334 120.915707 
L 108.923849 120.732087 
L 109.135363 119.978299 
L 109.346878 115.628854 
L 109.769907 112.174644 
L 109.981422 110.802586 
L 110.192937 110.716599 
L 110.404452 111.002503 
L 110.615966 112.035173 
L 110.827481 114.399034 
L 111.038996 115.150967 
L 111.462025 117.307279 
L 112.308084 119.319043 
L 112.731114 119.826149 
L 112.942628 119.952272 
L 113.154143 119.851842 
L 113.365658 120.088794 
L 113.577172 120.084659 
L 113.788687 120.201751 
L 114.000202 120.136105 
L 114.211717 120.255022 
L 114.423231 120.629377 
L 114.634746 120.505747 
L 114.846261 120.787517 
L 115.057775 120.555734 
L 115.26929 120.830815 
L 115.480805 120.582643 
L 115.903834 120.89266 
L 116.115349 120.657837 
L 118.018981 121.021945 
L 118.230496 120.583464 
L 118.442011 120.828017 
L 118.653526 120.771767 
L 118.86504 120.957911 
L 119.076555 120.758084 
L 119.28807 120.988864 
L 119.711099 120.498784 
L 119.922614 116.255485 
L 120.345643 112.879448 
L 120.557158 111.696939 
L 120.768673 111.292878 
L 120.980188 111.65504 
L 121.191702 112.49062 
L 121.403217 114.911674 
L 122.037761 117.740378 
L 122.249276 118.002871 
L 122.88382 119.493815 
L 123.306849 120.163136 
L 123.729879 119.951238 
L 124.152908 120.386739 
L 124.364423 119.996969 
L 124.575938 120.39726 
L 125.421997 120.72105 
L 125.633511 120.454939 
L 125.845026 120.557528 
L 126.056541 120.533112 
L 126.268056 120.633269 
L 126.47957 120.566954 
L 126.691085 120.744493 
L 126.9026 120.464548 
L 127.325629 120.644762 
L 128.171688 120.784264 
L 128.383203 121.070716 
L 128.594717 120.886488 
L 128.806232 120.996283 
L 129.017747 120.772801 
L 129.229262 120.939789 
L 130.07532 120.629134 
L 130.286835 120.050817 
L 130.709865 114.991702 
L 131.132894 112.181242 
L 131.344409 111.831241 
L 131.555923 112.124657 
L 131.767438 113.136407 
L 132.190468 116.05575 
L 132.613497 117.914664 
L 132.825012 117.980857 
L 133.248041 119.230106 
L 133.459556 119.313418 
L 133.671071 119.78127 
L 134.0941 120.041665 
L 134.305615 120.057537 
L 134.51713 120.217775 
L 134.728644 119.953032 
L 135.151674 120.462541 
L 135.574703 120.495561 
L 135.786218 120.357276 
L 136.209247 120.395435 
L 136.420762 120.67906 
L 136.632277 120.573126 
L 136.843791 120.848359 
L 137.055306 120.762311 
L 137.266821 120.80196 
L 137.478336 120.632144 
L 137.68985 120.737621 
L 137.901365 120.591279 
L 138.324394 120.840119 
L 138.535909 120.729746 
L 138.958939 120.808345 
L 139.170453 120.621806 
L 139.381968 120.815855 
L 140.228027 120.797368 
L 140.862571 120.390266 
L 141.285601 115.144917 
L 141.70863 112.636993 
L 141.920145 112.560218 
L 142.131659 112.967624 
L 142.343174 113.789612 
L 142.766204 116.829575 
L 143.612262 119.172427 
L 143.823777 119.583116 
L 144.035292 119.378881 
L 144.458321 119.963127 
L 144.669836 119.984411 
L 144.881351 120.134007 
L 145.092865 119.998671 
L 145.30438 120.263627 
L 145.938924 120.450683 
L 146.150439 120.674621 
L 146.361954 120.482031 
L 146.573468 120.690979 
L 146.996498 120.597664 
L 147.208013 120.610221 
L 147.419527 120.509366 
L 147.842557 120.866146 
L 148.054071 120.845349 
L 148.265586 120.691131 
L 148.477101 120.743946 
L 148.688616 120.540562 
L 148.90013 120.870981 
L 149.111645 120.46847 
L 149.32316 120.839541 
L 149.746189 120.812267 
L 150.592248 120.644184 
L 150.803763 120.888616 
L 151.015278 120.898954 
L 151.438307 120.554123 
L 151.861336 115.188245 
L 152.284366 113.254046 
L 152.495881 113.135738 
L 152.707395 113.447305 
L 152.91891 114.351875 
L 153.341939 117.307523 
L 153.553454 117.90612 
L 153.764969 118.093176 
L 154.187998 119.350178 
L 154.399513 119.754483 
L 154.611028 119.6096 
L 154.822542 120.206616 
L 155.034057 120.065837 
L 155.245572 120.232795 
L 155.457087 120.179038 
L 155.668601 120.251312 
L 155.880116 120.474338 
L 156.51466 120.581184 
L 157.149204 120.659022 
L 157.360719 120.587235 
L 157.783749 120.755074 
L 157.995263 120.345722 
L 158.206778 120.482092 
L 158.418293 120.769638 
L 158.841322 120.741756 
L 159.264352 120.580089 
L 159.475866 120.830176 
L 159.898896 120.641114 
L 160.11041 120.65136 
L 160.321925 121.000235 
L 160.53344 120.678208 
L 160.744955 120.742152 
L 160.956469 120.687725 
L 161.167984 120.853193 
L 161.379499 120.707976 
L 161.802528 120.642482 
L 162.014043 120.435966 
L 162.437072 115.756679 
L 162.860102 113.126251 
L 163.071616 113.100771 
L 163.494646 114.353425 
L 163.706161 116.358865 
L 164.12919 118.034858 
L 164.340705 118.235201 
L 164.55222 118.590644 
L 164.763734 119.332239 
L 165.186764 119.753662 
L 165.398278 120.111811 
L 165.609793 120.13121 
L 165.821308 120.282843 
L 166.032823 120.277431 
L 166.244337 120.410061 
L 166.455852 120.095453 
L 166.667367 120.571941 
L 166.878881 120.474946 
L 167.090396 120.67155 
L 168.359484 120.608883 
L 168.570999 120.813727 
L 168.782514 120.697759 
L 168.994029 120.923187 
L 169.205543 120.523443 
L 169.417058 120.442078 
L 169.628573 120.849545 
L 169.840087 120.744006 
L 170.686146 120.984728 
L 170.897661 120.723574 
L 171.74372 120.837018 
L 172.166749 120.660056 
L 172.378264 120.91367 
L 172.589779 120.617184 
L 172.801294 120.680611 
L 173.012808 120.891535 
L 173.224323 120.672127 
L 174.070382 120.986279 
L 174.281897 120.772497 
L 174.493411 121.080202 
L 174.704926 121.036205 
L 174.916441 120.755378 
L 175.127955 121.03353 
L 175.550985 120.886731 
L 175.7625 120.954718 
L 176.185529 120.708675 
L 176.397044 120.699705 
L 176.608558 120.931427 
L 176.820073 120.440041 
L 177.031588 120.729868 
L 177.454617 120.800865 
L 177.666132 121.08078 
L 177.877647 120.718131 
L 178.089161 121.191822 
L 178.512191 120.777422 
L 179.146735 120.828778 
L 179.35825 121.061807 
L 179.781279 121.008141 
L 179.992794 120.837747 
L 180.204309 120.913762 
L 180.415823 120.863835 
L 180.838853 120.955357 
L 181.050368 120.917137 
L 181.473397 120.991965 
L 181.684912 121.000935 
L 181.896426 120.874933 
L 182.107941 121.077618 
L 182.742485 120.929937 
L 182.954 121.18942 
L 183.588544 120.893025 
L 183.800059 120.858697 
L 184.011574 121.030763 
L 184.223088 120.833977 
L 184.646118 121.027357 
L 184.857632 120.698763 
L 185.280662 121.043959 
L 185.915206 120.812845 
L 186.126721 121.06652 
L 186.761265 121.062081 
L 187.184294 121.03882 
L 187.395809 121.238495 
L 187.607324 121.001117 
L 188.030353 121.159622 
L 188.453383 120.871467 
L 188.664897 121.112372 
L 188.876412 120.987283 
L 189.087927 121.095527 
L 189.299442 121.011942 
L 189.510956 121.125963 
L 189.933986 120.958154 
L 190.357015 121.085311 
L 190.56853 120.998441 
L 190.780045 121.077709 
L 190.991559 120.906555 
L 191.203074 121.180511 
L 191.414589 120.972536 
L 191.626103 121.030459 
L 191.837618 120.727527 
L 192.049133 120.987283 
L 192.472162 121.049857 
L 192.683677 120.864748 
L 192.895192 121.129764 
L 193.106706 120.868092 
L 193.529736 121.223809 
L 193.741251 120.732087 
L 193.952765 121.065212 
L 193.952765 121.065212 
" style="fill:none;stroke:#000000;stroke-linecap:square;stroke-width:1.5;"/>
   </g>
   <g id="line2d_5">
    <path clip-path="url(#paac5567063)" d="M 46.103977 145.33483 
L 67.149692 145.33483 
L 67.361206 133.378818 
L 67.678479 133.378818 
L 67.889993 145.33483 
L 77.725428 145.33483 
L 77.936942 133.378818 
L 78.254214 133.378818 
L 78.465729 145.33483 
L 88.301164 145.33483 
L 88.512678 133.378818 
L 88.82995 133.378818 
L 89.041465 145.33483 
L 98.876899 145.33483 
L 99.088414 133.378818 
L 99.405686 133.378818 
L 99.617201 145.33483 
L 109.452635 145.33483 
L 109.66415 133.378818 
L 109.981422 133.378818 
L 110.192937 145.33483 
L 120.028371 145.33483 
L 120.239886 133.378818 
L 120.557158 133.378818 
L 120.768673 145.33483 
L 130.604107 145.33483 
L 130.815622 133.378818 
L 131.132894 133.378818 
L 131.344409 145.33483 
L 141.179843 145.33483 
L 141.391358 133.378818 
L 141.70863 133.378818 
L 141.920145 145.33483 
L 151.755579 145.33483 
L 151.967094 133.378818 
L 152.284366 133.378818 
L 152.495881 145.33483 
L 162.331315 145.33483 
L 162.54283 133.378818 
L 162.860102 133.378818 
L 163.071616 145.33483 
L 194.058523 145.33483 
L 194.058523 145.33483 
" style="fill:none;stroke:#00ffff;stroke-linecap:square;stroke-width:2;"/>
   </g>
   <g id="patch_3">
    <path d="M 38.70625 145.33483 
L 38.70625 21.789375 
" style="fill:none;stroke:#000000;stroke-linecap:square;stroke-linejoin:miter;stroke-width:0.8;"/>
   </g>
   <g id="text_4">
    <!-- Pre-lesion -->
    <defs>
     <path d="M 7.71875 0 
L 7.71875 71.578125 
L 34.71875 71.578125 
Q 41.84375 71.578125 45.609375 70.90625 
Q 50.875 70.015625 54.4375 67.546875 
Q 58.015625 65.09375 60.1875 60.640625 
Q 62.359375 56.203125 62.359375 50.875 
Q 62.359375 41.75 56.546875 35.421875 
Q 50.734375 29.109375 35.546875 29.109375 
L 17.1875 29.109375 
L 17.1875 0 
z
M 17.1875 37.546875 
L 35.6875 37.546875 
Q 44.875 37.546875 48.734375 40.96875 
Q 52.59375 44.390625 52.59375 50.59375 
Q 52.59375 55.078125 50.3125 58.265625 
Q 48.046875 61.46875 44.34375 62.5 
Q 41.9375 63.140625 35.5 63.140625 
L 17.1875 63.140625 
z
" id="ArialMT-50"/>
     <path d="M 6.5 0 
L 6.5 51.859375 
L 14.40625 51.859375 
L 14.40625 44 
Q 17.4375 49.515625 20 51.265625 
Q 22.5625 53.03125 25.640625 53.03125 
Q 30.078125 53.03125 34.671875 50.203125 
L 31.640625 42.046875 
Q 28.421875 43.953125 25.203125 43.953125 
Q 22.3125 43.953125 20.015625 42.21875 
Q 17.71875 40.484375 16.75 37.40625 
Q 15.28125 32.71875 15.28125 27.15625 
L 15.28125 0 
z
" id="ArialMT-72"/>
     <path d="M 42.09375 16.703125 
L 51.171875 15.578125 
Q 49.03125 7.625 43.21875 3.21875 
Q 37.40625 -1.171875 28.375 -1.171875 
Q 17 -1.171875 10.328125 5.828125 
Q 3.65625 12.84375 3.65625 25.484375 
Q 3.65625 38.578125 10.390625 45.796875 
Q 17.140625 53.03125 27.875 53.03125 
Q 38.28125 53.03125 44.875 45.953125 
Q 51.46875 38.875 51.46875 26.03125 
Q 51.46875 25.25 51.421875 23.6875 
L 12.75 23.6875 
Q 13.234375 15.140625 17.578125 10.59375 
Q 21.921875 6.0625 28.421875 6.0625 
Q 33.25 6.0625 36.671875 8.59375 
Q 40.09375 11.140625 42.09375 16.703125 
z
M 13.234375 30.90625 
L 42.1875 30.90625 
Q 41.609375 37.453125 38.875 40.71875 
Q 34.671875 45.796875 27.984375 45.796875 
Q 21.921875 45.796875 17.796875 41.75 
Q 13.671875 37.703125 13.234375 30.90625 
z
" id="ArialMT-65"/>
     <path d="M 3.171875 21.484375 
L 3.171875 30.328125 
L 30.171875 30.328125 
L 30.171875 21.484375 
z
" id="ArialMT-2d"/>
     <path d="M 6.390625 0 
L 6.390625 71.578125 
L 15.1875 71.578125 
L 15.1875 0 
z
" id="ArialMT-6c"/>
     <path d="M 3.078125 15.484375 
L 11.765625 16.84375 
Q 12.5 11.625 15.84375 8.84375 
Q 19.1875 6.0625 25.203125 6.0625 
Q 31.25 6.0625 34.171875 8.515625 
Q 37.109375 10.984375 37.109375 14.3125 
Q 37.109375 17.28125 34.515625 19 
Q 32.71875 20.171875 25.53125 21.96875 
Q 15.875 24.421875 12.140625 26.203125 
Q 8.40625 27.984375 6.46875 31.125 
Q 4.546875 34.28125 4.546875 38.09375 
Q 4.546875 41.546875 6.125 44.5 
Q 7.71875 47.46875 10.453125 49.421875 
Q 12.5 50.921875 16.03125 51.96875 
Q 19.578125 53.03125 23.640625 53.03125 
Q 29.734375 53.03125 34.34375 51.265625 
Q 38.96875 49.515625 41.15625 46.5 
Q 43.359375 43.5 44.1875 38.484375 
L 35.59375 37.3125 
Q 35.015625 41.3125 32.203125 43.546875 
Q 29.390625 45.796875 24.265625 45.796875 
Q 18.21875 45.796875 15.625 43.796875 
Q 13.03125 41.796875 13.03125 39.109375 
Q 13.03125 37.40625 14.109375 36.03125 
Q 15.1875 34.625 17.484375 33.6875 
Q 18.796875 33.203125 25.25 31.453125 
Q 34.578125 28.953125 38.25 27.359375 
Q 41.9375 25.78125 44.03125 22.75 
Q 46.140625 19.734375 46.140625 15.234375 
Q 46.140625 10.84375 43.578125 6.953125 
Q 41.015625 3.078125 36.171875 0.953125 
Q 31.34375 -1.171875 25.25 -1.171875 
Q 15.140625 -1.171875 9.84375 3.03125 
Q 4.546875 7.234375 3.078125 15.484375 
z
" id="ArialMT-73"/>
     <path d="M 6.640625 61.46875 
L 6.640625 71.578125 
L 15.4375 71.578125 
L 15.4375 61.46875 
z
M 6.640625 0 
L 6.640625 51.859375 
L 15.4375 51.859375 
L 15.4375 0 
z
" id="ArialMT-69"/>
     <path d="M 3.328125 25.921875 
Q 3.328125 40.328125 11.328125 47.265625 
Q 18.015625 53.03125 27.640625 53.03125 
Q 38.328125 53.03125 45.109375 46.015625 
Q 51.90625 39.015625 51.90625 26.65625 
Q 51.90625 16.65625 48.90625 10.90625 
Q 45.90625 5.171875 40.15625 2 
Q 34.421875 -1.171875 27.640625 -1.171875 
Q 16.75 -1.171875 10.03125 5.8125 
Q 3.328125 12.796875 3.328125 25.921875 
z
M 12.359375 25.921875 
Q 12.359375 15.96875 16.703125 11.015625 
Q 21.046875 6.0625 27.640625 6.0625 
Q 34.1875 6.0625 38.53125 11.03125 
Q 42.875 16.015625 42.875 26.21875 
Q 42.875 35.84375 38.5 40.796875 
Q 34.125 45.75 27.640625 45.75 
Q 21.046875 45.75 16.703125 40.8125 
Q 12.359375 35.890625 12.359375 25.921875 
z
" id="ArialMT-6f"/>
     <path d="M 6.59375 0 
L 6.59375 51.859375 
L 14.5 51.859375 
L 14.5 44.484375 
Q 20.21875 53.03125 31 53.03125 
Q 35.6875 53.03125 39.625 51.34375 
Q 43.5625 49.65625 45.515625 46.921875 
Q 47.46875 44.1875 48.25 40.4375 
Q 48.734375 37.984375 48.734375 31.890625 
L 48.734375 0 
L 39.9375 0 
L 39.9375 31.546875 
Q 39.9375 36.921875 38.90625 39.578125 
Q 37.890625 42.234375 35.28125 43.8125 
Q 32.671875 45.40625 29.15625 45.40625 
Q 23.53125 45.40625 19.453125 41.84375 
Q 15.375 38.28125 15.375 28.328125 
L 15.375 0 
z
" id="ArialMT-6e"/>
    </defs>
    <g transform="translate(93.070938 15.789375)scale(0.12 -0.12)">
     <use xlink:href="#ArialMT-50"/>
     <use x="66.699219" xlink:href="#ArialMT-72"/>
     <use x="100" xlink:href="#ArialMT-65"/>
     <use x="155.615234" xlink:href="#ArialMT-2d"/>
     <use x="188.916016" xlink:href="#ArialMT-6c"/>
     <use x="211.132812" xlink:href="#ArialMT-65"/>
     <use x="266.748047" xlink:href="#ArialMT-73"/>
     <use x="316.748047" xlink:href="#ArialMT-69"/>
     <use x="338.964844" xlink:href="#ArialMT-6f"/>
     <use x="394.580078" xlink:href="#ArialMT-6e"/>
    </g>
   </g>
  </g>
  <g id="axes_2">
   <g id="patch_4">
    <path d="M 266.55625 145.33483 
L 429.30625 145.33483 
L 429.30625 21.789375 
L 266.55625 21.789375 
z
" style="fill:#ffffff;"/>
   </g>
   <g id="matplotlib.axis_3"/>
   <g id="matplotlib.axis_4">
    <g id="ytick_4">
     <g id="line2d_6">
      <g>
       <use style="stroke:#000000;stroke-width:0.8;" x="266.55625" xlink:href="#m80ba7110c2" y="121.422806"/>
      </g>
     </g>
     <g id="text_5">
      <!-- 0 -->
      <g transform="translate(253.995313 125.001712)scale(0.1 -0.1)">
       <use xlink:href="#ArialMT-30"/>
      </g>
     </g>
    </g>
    <g id="ytick_5">
     <g id="line2d_7">
      <g>
       <use style="stroke:#000000;stroke-width:0.8;" x="266.55625" xlink:href="#m80ba7110c2" y="81.569434"/>
      </g>
     </g>
     <g id="text_6">
      <!-- 10 -->
      <g transform="translate(248.434375 85.14834)scale(0.1 -0.1)">
       <use xlink:href="#ArialMT-31"/>
       <use x="55.615234" xlink:href="#ArialMT-30"/>
      </g>
     </g>
    </g>
    <g id="ytick_6">
     <g id="line2d_8">
      <g>
       <use style="stroke:#000000;stroke-width:0.8;" x="266.55625" xlink:href="#m80ba7110c2" y="41.716061"/>
      </g>
     </g>
     <g id="text_7">
      <!-- 20 -->
      <g transform="translate(248.434375 45.294967)scale(0.1 -0.1)">
       <use xlink:href="#ArialMT-32"/>
       <use x="55.615234" xlink:href="#ArialMT-30"/>
      </g>
     </g>
    </g>
   </g>
   <g id="line2d_9">
    <path clip-path="url(#p27ddb11379)" d="M 273.953977 121.170016 
L 274.377007 121.227118 
L 274.588521 120.701768 
L 274.800036 120.481387 
L 275.011551 120.926223 
L 275.43458 119.842898 
L 275.646095 120.882195 
L 275.85761 120.479593 
L 276.069124 119.679984 
L 276.492154 119.855121 
L 276.703669 119.539966 
L 276.915183 119.916662 
L 277.126698 119.700143 
L 277.549727 121.111667 
L 277.761242 121.308544 
L 277.972757 119.851259 
L 278.184272 119.853935 
L 278.395786 120.490874 
L 278.818816 120.815364 
L 279.030331 120.561263 
L 279.241845 120.848293 
L 279.45336 120.348849 
L 279.664875 121.261355 
L 280.087904 120.612953 
L 280.510934 120.543354 
L 280.722448 122.043542 
L 280.933963 121.304926 
L 281.356992 120.746616 
L 281.568507 121.785306 
L 281.780022 119.811398 
L 281.991537 120.172648 
L 282.203051 120.974386 
L 282.414566 119.968656 
L 282.626081 120.962436 
L 282.837595 121.044896 
L 283.04911 120.757867 
L 283.260625 120.67416 
L 283.47214 120.128255 
L 283.683654 120.085231 
L 283.895169 119.815046 
L 284.318198 120.315099 
L 284.529713 121.020633 
L 284.741228 120.764829 
L 284.952743 121.014156 
L 285.375772 120.838533 
L 285.587287 120.952524 
L 286.010316 120.25298 
L 286.221831 120.749292 
L 286.433346 120.781613 
L 286.64486 121.055265 
L 286.856375 119.718843 
L 287.06789 119.876314 
L 287.279405 120.609183 
L 287.490919 120.137833 
L 287.702434 121.203979 
L 287.913949 120.550804 
L 288.336978 120.942885 
L 288.548493 120.859847 
L 288.760008 121.343815 
L 288.971522 121.275767 
L 289.394552 120.584463 
L 289.606066 121.197351 
L 290.240611 121.106042 
L 290.452125 121.935723 
L 290.875155 121.431475 
L 291.086669 121.71066 
L 291.298184 121.397238 
L 291.509699 120.774225 
L 291.721214 121.160955 
L 291.932728 121.216749 
L 292.144243 121.596912 
L 292.355758 120.892442 
L 292.778787 121.514026 
L 293.201817 120.552172 
L 293.413331 121.358744 
L 293.836361 121.442269 
L 294.047876 121.917571 
L 294.893934 111.289559 
L 295.528479 91.754042 
L 295.739993 88.767897 
L 295.951508 79.20597 
L 296.374537 75.168852 
L 296.797567 65.07066 
L 297.220596 65.423184 
L 297.432111 62.508979 
L 297.85514 61.415376 
L 298.489685 66.429977 
L 298.701199 67.183522 
L 298.912714 67.360879 
L 299.124229 70.188975 
L 299.335743 76.630394 
L 299.547258 77.957633 
L 300.393317 86.151577 
L 300.816346 94.976196 
L 301.027861 94.106927 
L 301.239376 98.385132 
L 301.450891 98.7642 
L 301.662405 99.434403 
L 301.87392 102.504163 
L 302.085435 102.358672 
L 302.29695 102.371169 
L 302.508464 104.05823 
L 302.719979 107.116436 
L 302.931494 106.788966 
L 303.143008 107.600099 
L 303.354523 107.530318 
L 303.566038 108.335249 
L 303.777553 108.241751 
L 303.989067 109.358705 
L 304.200582 112.123587 
L 304.412097 112.578214 
L 304.835126 111.892595 
L 305.046641 110.125598 
L 305.258156 109.456125 
L 305.46967 106.864859 
L 306.315729 84.279741 
L 306.950273 74.976597 
L 307.161788 76.070807 
L 307.373303 72.465724 
L 307.584817 71.126869 
L 307.796332 65.826911 
L 308.007847 68.47166 
L 308.219362 67.64949 
L 308.430876 73.42627 
L 308.642391 74.657823 
L 308.853906 78.845024 
L 309.065421 78.179291 
L 309.276935 77.928353 
L 309.699965 82.926322 
L 309.911479 85.707046 
L 310.122994 86.708458 
L 310.334509 93.457339 
L 310.546024 93.88007 
L 310.757538 94.023129 
L 310.969053 93.988041 
L 311.180568 95.942459 
L 311.392082 96.679706 
L 311.815112 100.67079 
L 312.026627 100.173505 
L 312.238141 102.800315 
L 312.449656 102.034121 
L 312.661171 104.456757 
L 312.872685 104.725939 
L 313.0842 105.254816 
L 313.295715 107.178311 
L 313.50723 106.690209 
L 313.718744 107.109868 
L 313.930259 109.048932 
L 314.141774 107.345452 
L 314.353288 109.619008 
L 314.564803 107.770888 
L 314.776318 109.36509 
L 314.987833 107.577812 
L 315.199347 107.559599 
L 315.410862 108.857649 
L 315.622377 109.159912 
L 316.045406 103.034013 
L 316.891465 82.384857 
L 317.314495 77.049445 
L 317.526009 73.459869 
L 317.737524 73.469507 
L 318.160553 63.92032 
L 318.372068 64.507546 
L 318.583583 64.419582 
L 318.795098 62.59527 
L 319.006612 61.779698 
L 319.218127 64.30027 
L 319.429642 64.155448 
L 319.641156 65.296817 
L 319.852671 65.089633 
L 320.064186 67.396149 
L 320.275701 66.505566 
L 320.487215 76.431632 
L 320.69873 68.243161 
L 320.910245 77.620008 
L 321.333274 83.136334 
L 321.756304 87.437283 
L 321.967818 90.526016 
L 322.179333 90.847192 
L 322.602362 97.100977 
L 322.813877 97.0322 
L 323.025392 101.268384 
L 323.236907 100.68502 
L 323.448421 101.175069 
L 323.871451 103.974614 
L 324.082966 103.715922 
L 324.29448 105.648752 
L 324.505995 106.199825 
L 324.71751 105.563738 
L 324.929024 106.130287 
L 325.140539 106.376908 
L 325.352054 107.278194 
L 325.563569 106.682212 
L 325.775083 107.868035 
L 326.198113 106.761419 
L 326.409627 105.627742 
L 326.621142 102.877789 
L 326.832657 93.178245 
L 327.044172 92.147978 
L 327.89023 76.998485 
L 328.101745 77.158359 
L 328.31326 73.31608 
L 328.524775 67.38049 
L 328.947804 68.721777 
L 329.159319 68.99625 
L 329.370833 68.869184 
L 329.582348 61.97545 
L 329.793863 67.409467 
L 330.005378 76.609231 
L 330.216892 78.251474 
L 330.428407 78.991823 
L 330.639922 84.115824 
L 330.851436 81.666887 
L 331.697495 93.014389 
L 332.120525 95.244344 
L 332.543554 96.242411 
L 333.389613 102.881072 
L 333.601128 102.609975 
L 333.812643 103.162751 
L 334.024157 102.312668 
L 334.235672 103.357864 
L 334.447187 103.739882 
L 334.658701 104.90889 
L 334.870216 104.910714 
L 335.081731 106.175501 
L 335.293246 105.091993 
L 335.50476 105.430166 
L 335.716275 105.276617 
L 335.92779 106.011553 
L 336.139304 106.130713 
L 336.350819 106.662235 
L 336.562334 106.67531 
L 336.773849 106.199856 
L 337.196878 100.751943 
L 337.619907 90.187357 
L 338.254452 77.627884 
L 338.677481 75.671975 
L 338.888996 69.920218 
L 339.100511 67.894164 
L 339.312025 64.630902 
L 339.52354 65.92433 
L 339.735055 65.019548 
L 339.946569 61.577074 
L 340.158084 62.814039 
L 340.369599 62.756785 
L 340.581114 65.046548 
L 341.004143 65.628817 
L 341.215658 69.930952 
L 341.427172 69.497944 
L 341.638687 75.973478 
L 341.850202 75.132791 
L 342.061717 77.970525 
L 342.273231 76.455196 
L 342.907775 85.762658 
L 343.11929 87.071563 
L 343.54232 92.466843 
L 343.753834 92.347835 
L 344.176864 95.54609 
L 344.388378 97.211472 
L 344.599893 95.844583 
L 345.022923 100.029138 
L 345.234437 100.249276 
L 345.657467 103.378571 
L 345.868981 103.501866 
L 346.080496 104.692614 
L 346.292011 103.971482 
L 346.71504 106.931265 
L 346.926555 107.365215 
L 347.13807 106.410719 
L 347.349585 108.179207 
L 347.561099 106.845795 
L 347.772614 102.770274 
L 348.195643 88.981984 
L 348.407158 86.701039 
L 348.830188 79.863038 
L 349.041702 78.077706 
L 349.253217 74.114352 
L 349.464732 74.276505 
L 349.676246 65.14564 
L 349.887761 69.765423 
L 350.099276 69.646749 
L 350.310791 65.241418 
L 350.522305 72.304817 
L 350.73382 70.099764 
L 351.368364 76.720912 
L 351.579879 77.662759 
L 352.002908 80.856666 
L 352.425938 86.61049 
L 353.060482 92.249199 
L 353.695026 95.161792 
L 353.906541 96.655321 
L 354.118056 98.987682 
L 354.32957 99.725446 
L 354.541085 98.982483 
L 354.7526 99.832718 
L 354.964114 102.683405 
L 355.175629 102.577988 
L 355.387144 102.006483 
L 355.598659 103.977837 
L 355.810173 102.554606 
L 356.021688 104.072915 
L 356.233203 104.254286 
L 356.444717 105.766939 
L 356.656232 103.889995 
L 356.867747 105.348192 
L 357.079262 104.30558 
L 357.290776 105.349134 
L 357.502291 105.58262 
L 357.713806 106.396824 
L 357.92532 106.104443 
L 358.34835 101.080112 
L 358.771379 88.248476 
L 358.982894 86.212662 
L 359.617438 73.412527 
L 359.828953 72.201194 
L 360.040468 67.518289 
L 360.251982 67.697713 
L 360.463497 64.291787 
L 360.886526 62.955547 
L 361.098041 61.678751 
L 361.309556 61.851273 
L 361.521071 61.314095 
L 361.732585 64.603081 
L 362.155615 65.790515 
L 362.36713 67.48162 
L 362.578644 68.118224 
L 362.790159 73.535032 
L 363.424703 80.808442 
L 363.636218 84.223855 
L 363.847733 84.913274 
L 364.693791 95.525293 
L 365.328336 98.89987 
L 365.53985 98.278469 
L 365.751365 99.688321 
L 365.96288 99.903016 
L 366.385909 102.953651 
L 366.597424 103.049429 
L 366.808939 103.389426 
L 367.020453 102.775838 
L 367.231968 104.649104 
L 367.866512 103.950928 
L 368.078027 104.291228 
L 368.289542 105.484683 
L 368.501056 102.126433 
L 368.712571 102.334712 
L 368.924086 98.628834 
L 369.135601 90.573023 
L 369.347115 87.398546 
L 369.770145 78.361026 
L 369.981659 75.398567 
L 370.193174 75.497751 
L 370.404689 77.088577 
L 370.616204 62.551273 
L 370.827718 68.506383 
L 371.039233 66.166664 
L 371.250748 65.260513 
L 371.462262 65.364166 
L 371.673777 62.367805 
L 371.885292 71.024432 
L 372.096807 74.405699 
L 372.308321 74.804896 
L 372.519836 73.542633 
L 372.731351 77.683374 
L 373.365895 81.07659 
L 373.57741 84.298015 
L 373.788924 85.672657 
L 374.000439 89.466438 
L 374.423468 91.595355 
L 374.634983 92.412903 
L 374.846498 92.573598 
L 375.904071 96.251016 
L 376.538616 100.391787 
L 376.961645 100.994459 
L 377.384675 102.111747 
L 377.596189 103.819727 
L 377.807704 102.014996 
L 378.019219 103.759159 
L 378.230733 103.583657 
L 378.653763 106.038614 
L 378.865278 106.329779 
L 379.076792 106.253248 
L 379.711336 94.141438 
L 380.345881 81.300437 
L 380.76891 74.415247 
L 380.980425 70.149295 
L 381.191939 72.024871 
L 381.403454 62.601351 
L 381.614969 64.822063 
L 381.826484 64.393707 
L 382.037998 65.585276 
L 382.249513 64.220881 
L 382.461028 64.479998 
L 382.672542 65.263249 
L 382.884057 67.881698 
L 383.095572 67.859532 
L 383.307087 69.904985 
L 383.518601 74.254096 
L 383.730116 75.957455 
L 383.941631 73.826653 
L 384.36466 77.928991 
L 384.576175 80.805676 
L 384.78769 81.122442 
L 385.210719 88.39187 
L 385.633749 91.830482 
L 386.056778 99.568796 
L 386.268293 98.40146 
L 386.691322 100.65501 
L 387.114352 102.118588 
L 387.325866 105.353209 
L 387.537381 105.518829 
L 387.748896 106.016935 
L 387.96041 107.242163 
L 388.171925 107.206619 
L 388.806469 108.359208 
L 389.017984 107.991938 
L 389.229499 109.789402 
L 389.441013 106.885079 
L 389.652528 107.399239 
L 389.864043 103.848825 
L 390.075558 104.783345 
L 390.287072 97.06592 
L 390.498587 93.926226 
L 390.921616 81.491993 
L 391.767675 73.1085 
L 392.40222 64.867732 
L 392.825249 65.513215 
L 393.036764 70.25009 
L 393.248278 61.936378 
L 393.671308 76.872058 
L 394.305852 81.181612 
L 395.151911 91.940733 
L 395.363426 90.452039 
L 395.786455 94.334483 
L 395.99797 93.245685 
L 396.420999 96.476414 
L 396.632514 95.761515 
L 396.844029 98.775481 
L 397.055543 98.003571 
L 397.267058 100.142917 
L 397.478573 98.749514 
L 397.690087 100.994763 
L 397.901602 99.769778 
L 398.113117 101.056274 
L 398.324632 100.503468 
L 398.536146 101.036358 
L 398.747661 99.902833 
L 398.959176 101.546292 
L 399.170691 100.825768 
L 399.382205 102.899833 
L 399.59372 103.42795 
L 399.805235 101.735416 
L 400.016749 103.805132 
L 400.228264 103.332993 
L 400.439779 103.42272 
L 400.651294 104.611796 
L 400.862808 106.992077 
L 401.074323 105.877798 
L 401.285838 106.283289 
L 401.497352 105.261353 
L 401.708867 105.924471 
L 401.920382 105.945117 
L 402.131897 107.014759 
L 402.343411 105.839305 
L 402.554926 106.813017 
L 402.977955 106.895204 
L 403.18947 108.091729 
L 403.400985 106.423368 
L 403.6125 106.975414 
L 403.824014 108.723347 
L 404.035529 107.812635 
L 404.247044 107.705455 
L 404.670073 108.331813 
L 404.881588 109.441104 
L 405.093103 107.715003 
L 405.516132 108.158044 
L 405.727647 108.213778 
L 405.939161 108.401594 
L 406.362191 109.91139 
L 406.573706 109.703901 
L 406.78522 111.267606 
L 406.996735 110.404996 
L 407.20825 110.224751 
L 407.419765 109.764104 
L 407.631279 111.21996 
L 407.842794 108.784706 
L 408.054309 108.416918 
L 408.265823 108.749739 
L 408.477338 109.814456 
L 408.688853 111.740627 
L 408.900368 111.99111 
L 409.111882 111.432678 
L 409.323397 109.271593 
L 409.534912 109.237204 
L 409.746426 109.354965 
L 410.169456 111.768783 
L 410.380971 111.275998 
L 410.592485 109.48501 
L 410.804 110.09957 
L 411.015515 109.568139 
L 411.227029 109.819382 
L 411.438544 109.826071 
L 411.650059 109.343685 
L 412.284603 111.888612 
L 412.707632 111.273353 
L 412.919147 111.885602 
L 413.130662 110.074151 
L 413.342177 110.667123 
L 413.553691 111.869213 
L 413.765206 110.491226 
L 413.976721 110.140284 
L 414.188236 110.00887 
L 414.39975 110.785432 
L 414.611265 109.947785 
L 414.82278 109.995461 
L 415.034294 112.636653 
L 415.245809 110.770685 
L 415.668839 113.678414 
L 415.880353 111.941822 
L 416.303383 114.366525 
L 416.514897 112.362211 
L 416.726412 113.421486 
L 416.937927 113.496344 
L 417.149442 114.17129 
L 417.360956 114.460509 
L 417.783986 113.792283 
L 417.9955 113.279187 
L 418.207015 113.866382 
L 418.41853 113.031441 
L 418.630045 113.223088 
L 419.264589 112.163997 
L 419.476103 110.886622 
L 419.687618 112.809631 
L 420.110648 112.217419 
L 420.322162 110.476693 
L 420.533677 110.562832 
L 420.745192 111.82777 
L 420.956706 109.425871 
L 421.168221 110.123834 
L 421.379736 110.076645 
L 421.591251 108.417253 
L 421.802765 108.50096 
L 421.802765 108.50096 
" style="fill:none;stroke:#000000;stroke-linecap:square;stroke-width:1.5;"/>
   </g>
   <g id="line2d_10">
    <path clip-path="url(#p27ddb11379)" d="M 273.953977 145.33483 
L 294.999692 145.33483 
L 295.211206 133.378818 
L 295.528479 133.378818 
L 295.739993 145.33483 
L 305.575428 145.33483 
L 305.786942 133.378818 
L 306.104214 133.378818 
L 306.315729 145.33483 
L 316.151164 145.33483 
L 316.362678 133.378818 
L 316.67995 133.378818 
L 316.891465 145.33483 
L 326.726899 145.33483 
L 326.938414 133.378818 
L 327.255686 133.378818 
L 327.467201 145.33483 
L 337.302635 145.33483 
L 337.51415 133.378818 
L 337.831422 133.378818 
L 338.042937 145.33483 
L 347.878371 145.33483 
L 348.089886 133.378818 
L 348.407158 133.378818 
L 348.618673 145.33483 
L 358.454107 145.33483 
L 358.665622 133.378818 
L 358.982894 133.378818 
L 359.194409 145.33483 
L 369.029843 145.33483 
L 369.241358 133.378818 
L 369.55863 133.378818 
L 369.770145 145.33483 
L 379.605579 145.33483 
L 379.817094 133.378818 
L 380.134366 133.378818 
L 380.345881 145.33483 
L 390.181315 145.33483 
L 390.39283 133.378818 
L 390.710102 133.378818 
L 390.921616 145.33483 
L 421.908523 145.33483 
L 421.908523 145.33483 
" style="fill:none;stroke:#00ffff;stroke-linecap:square;stroke-width:2;"/>
   </g>
   <g id="patch_5">
    <path d="M 266.55625 145.33483 
L 266.55625 21.789375 
" style="fill:none;stroke:#000000;stroke-linecap:square;stroke-linejoin:miter;stroke-width:0.8;"/>
   </g>
   <g id="text_8">
    <!-- Day +7 -->
    <defs>
     <path d="M 7.71875 0 
L 7.71875 71.578125 
L 32.375 71.578125 
Q 40.71875 71.578125 45.125 70.5625 
Q 51.265625 69.140625 55.609375 65.4375 
Q 61.28125 60.640625 64.078125 53.1875 
Q 66.890625 45.75 66.890625 36.1875 
Q 66.890625 28.03125 64.984375 21.734375 
Q 63.09375 15.4375 60.109375 11.296875 
Q 57.125 7.171875 53.578125 4.796875 
Q 50.046875 2.4375 45.046875 1.21875 
Q 40.046875 0 33.546875 0 
z
M 17.1875 8.453125 
L 32.46875 8.453125 
Q 39.546875 8.453125 43.578125 9.765625 
Q 47.609375 11.078125 50 13.484375 
Q 53.375 16.84375 55.25 22.53125 
Q 57.125 28.21875 57.125 36.328125 
Q 57.125 47.5625 53.4375 53.59375 
Q 49.75 59.625 44.484375 61.671875 
Q 40.671875 63.140625 32.234375 63.140625 
L 17.1875 63.140625 
z
" id="ArialMT-44"/>
     <path d="M 40.4375 6.390625 
Q 35.546875 2.25 31.03125 0.53125 
Q 26.515625 -1.171875 21.34375 -1.171875 
Q 12.796875 -1.171875 8.203125 3 
Q 3.609375 7.171875 3.609375 13.671875 
Q 3.609375 17.484375 5.34375 20.625 
Q 7.078125 23.78125 9.890625 25.6875 
Q 12.703125 27.59375 16.21875 28.5625 
Q 18.796875 29.25 24.03125 29.890625 
Q 34.671875 31.15625 39.703125 32.90625 
Q 39.75 34.71875 39.75 35.203125 
Q 39.75 40.578125 37.25 42.78125 
Q 33.890625 45.75 27.25 45.75 
Q 21.046875 45.75 18.09375 43.578125 
Q 15.140625 41.40625 13.71875 35.890625 
L 5.125 37.0625 
Q 6.296875 42.578125 8.984375 45.96875 
Q 11.671875 49.359375 16.75 51.1875 
Q 21.828125 53.03125 28.515625 53.03125 
Q 35.15625 53.03125 39.296875 51.46875 
Q 43.453125 49.90625 45.40625 47.53125 
Q 47.359375 45.171875 48.140625 41.546875 
Q 48.578125 39.3125 48.578125 33.453125 
L 48.578125 21.734375 
Q 48.578125 9.46875 49.140625 6.21875 
Q 49.703125 2.984375 51.375 0 
L 42.1875 0 
Q 40.828125 2.734375 40.4375 6.390625 
z
M 39.703125 26.03125 
Q 34.90625 24.078125 25.34375 22.703125 
Q 19.921875 21.921875 17.671875 20.9375 
Q 15.4375 19.96875 14.203125 18.09375 
Q 12.984375 16.21875 12.984375 13.921875 
Q 12.984375 10.40625 15.640625 8.0625 
Q 18.3125 5.71875 23.4375 5.71875 
Q 28.515625 5.71875 32.46875 7.9375 
Q 36.421875 10.15625 38.28125 14.015625 
Q 39.703125 17 39.703125 22.796875 
z
" id="ArialMT-61"/>
     <path d="M 6.203125 -19.96875 
L 5.21875 -11.71875 
Q 8.109375 -12.5 10.25 -12.5 
Q 13.1875 -12.5 14.9375 -11.515625 
Q 16.703125 -10.546875 17.828125 -8.796875 
Q 18.65625 -7.46875 20.515625 -2.25 
Q 20.75 -1.515625 21.296875 -0.09375 
L 1.609375 51.859375 
L 11.078125 51.859375 
L 21.875 21.828125 
Q 23.96875 16.109375 25.640625 9.8125 
Q 27.15625 15.875 29.25 21.625 
L 40.328125 51.859375 
L 49.125 51.859375 
L 29.390625 -0.875 
Q 26.21875 -9.421875 24.46875 -12.640625 
Q 22.125 -17 19.09375 -19.015625 
Q 16.0625 -21.046875 11.859375 -21.046875 
Q 9.328125 -21.046875 6.203125 -19.96875 
z
" id="ArialMT-79"/>
     <path id="ArialMT-20"/>
     <path d="M 25.046875 11.578125 
L 25.046875 31.203125 
L 5.5625 31.203125 
L 5.5625 39.40625 
L 25.046875 39.40625 
L 25.046875 58.890625 
L 33.34375 58.890625 
L 33.34375 39.40625 
L 52.828125 39.40625 
L 52.828125 31.203125 
L 33.34375 31.203125 
L 33.34375 11.578125 
z
" id="ArialMT-2b"/>
     <path d="M 4.734375 62.203125 
L 4.734375 70.65625 
L 51.078125 70.65625 
L 51.078125 63.8125 
Q 44.234375 56.546875 37.515625 44.484375 
Q 30.8125 32.421875 27.15625 19.671875 
Q 24.515625 10.6875 23.78125 0 
L 14.75 0 
Q 14.890625 8.453125 18.0625 20.40625 
Q 21.234375 32.375 27.171875 43.484375 
Q 33.109375 54.59375 39.796875 62.203125 
z
" id="ArialMT-37"/>
    </defs>
    <g transform="translate(328.75375 15.789375)scale(0.12 -0.12)">
     <use xlink:href="#ArialMT-44"/>
     <use x="72.216797" xlink:href="#ArialMT-61"/>
     <use x="127.832031" xlink:href="#ArialMT-79"/>
     <use x="177.832031" xlink:href="#ArialMT-20"/>
     <use x="205.615234" xlink:href="#ArialMT-2b"/>
     <use x="264.013672" xlink:href="#ArialMT-37"/>
    </g>
   </g>
  </g>
  <g id="axes_3">
   <g id="patch_6">
    <path d="M 38.70625 293.589375 
L 201.45625 293.589375 
L 201.45625 170.04392 
L 38.70625 170.04392 
z
" style="fill:#ffffff;"/>
   </g>
   <g id="matplotlib.axis_5"/>
   <g id="matplotlib.axis_6">
    <g id="ytick_7">
     <g id="line2d_11">
      <g>
       <use style="stroke:#000000;stroke-width:0.8;" x="38.70625" xlink:href="#m80ba7110c2" y="269.677352"/>
      </g>
     </g>
     <g id="text_9">
      <!-- 0 -->
      <g transform="translate(26.145313 273.256258)scale(0.1 -0.1)">
       <use xlink:href="#ArialMT-30"/>
      </g>
     </g>
    </g>
    <g id="ytick_8">
     <g id="line2d_12">
      <g>
       <use style="stroke:#000000;stroke-width:0.8;" x="38.70625" xlink:href="#m80ba7110c2" y="229.823979"/>
      </g>
     </g>
     <g id="text_10">
      <!-- 10 -->
      <g transform="translate(20.584375 233.402885)scale(0.1 -0.1)">
       <use xlink:href="#ArialMT-31"/>
       <use x="55.615234" xlink:href="#ArialMT-30"/>
      </g>
     </g>
    </g>
    <g id="ytick_9">
     <g id="line2d_13">
      <g>
       <use style="stroke:#000000;stroke-width:0.8;" x="38.70625" xlink:href="#m80ba7110c2" y="189.970607"/>
      </g>
     </g>
     <g id="text_11">
      <!-- 20 -->
      <g transform="translate(20.584375 193.549513)scale(0.1 -0.1)">
       <use xlink:href="#ArialMT-32"/>
       <use x="55.615234" xlink:href="#ArialMT-30"/>
      </g>
     </g>
    </g>
    <g id="text_12">
     <!-- Angle(°) -->
     <defs>
      <path d="M -0.140625 0 
L 27.34375 71.578125 
L 37.546875 71.578125 
L 66.84375 0 
L 56.0625 0 
L 47.703125 21.6875 
L 17.78125 21.6875 
L 9.90625 0 
z
M 20.515625 29.390625 
L 44.78125 29.390625 
L 37.3125 49.21875 
Q 33.890625 58.25 32.234375 64.0625 
Q 30.859375 57.171875 28.375 50.390625 
z
" id="ArialMT-41"/>
      <path d="M 4.984375 -4.296875 
L 13.53125 -5.5625 
Q 14.0625 -9.515625 16.5 -11.328125 
Q 19.78125 -13.765625 25.4375 -13.765625 
Q 31.546875 -13.765625 34.859375 -11.328125 
Q 38.1875 -8.890625 39.359375 -4.5 
Q 40.046875 -1.8125 39.984375 6.78125 
Q 34.234375 0 25.640625 0 
Q 14.9375 0 9.078125 7.71875 
Q 3.21875 15.4375 3.21875 26.21875 
Q 3.21875 33.640625 5.90625 39.90625 
Q 8.59375 46.1875 13.6875 49.609375 
Q 18.796875 53.03125 25.6875 53.03125 
Q 34.859375 53.03125 40.828125 45.609375 
L 40.828125 51.859375 
L 48.921875 51.859375 
L 48.921875 7.03125 
Q 48.921875 -5.078125 46.453125 -10.125 
Q 44 -15.1875 38.640625 -18.109375 
Q 33.296875 -21.046875 25.484375 -21.046875 
Q 16.21875 -21.046875 10.5 -16.875 
Q 4.78125 -12.703125 4.984375 -4.296875 
z
M 12.25 26.859375 
Q 12.25 16.65625 16.296875 11.96875 
Q 20.359375 7.28125 26.46875 7.28125 
Q 32.515625 7.28125 36.609375 11.9375 
Q 40.71875 16.609375 40.71875 26.5625 
Q 40.71875 36.078125 36.5 40.90625 
Q 32.28125 45.75 26.3125 45.75 
Q 20.453125 45.75 16.34375 40.984375 
Q 12.25 36.234375 12.25 26.859375 
z
" id="ArialMT-67"/>
      <path d="M 23.390625 -21.046875 
Q 16.109375 -11.859375 11.078125 0.4375 
Q 6.0625 12.75 6.0625 25.921875 
Q 6.0625 37.546875 9.8125 48.1875 
Q 14.203125 60.546875 23.390625 72.796875 
L 29.6875 72.796875 
Q 23.78125 62.640625 21.875 58.296875 
Q 18.890625 51.5625 17.1875 44.234375 
Q 15.09375 35.109375 15.09375 25.875 
Q 15.09375 2.390625 29.6875 -21.046875 
z
" id="ArialMT-28"/>
      <path d="M 6.25 59.28125 
Q 6.25 64.890625 10.21875 68.84375 
Q 14.203125 72.796875 19.78125 72.796875 
Q 25.4375 72.796875 29.390625 68.84375 
Q 33.34375 64.890625 33.34375 59.28125 
Q 33.34375 53.65625 29.359375 49.671875 
Q 25.390625 45.703125 19.78125 45.703125 
Q 14.203125 45.703125 10.21875 49.65625 
Q 6.25 53.609375 6.25 59.28125 
z
M 11.578125 59.28125 
Q 11.578125 55.859375 13.984375 53.4375 
Q 16.40625 51.03125 19.828125 51.03125 
Q 23.1875 51.03125 25.609375 53.4375 
Q 28.03125 55.859375 28.03125 59.28125 
Q 28.03125 62.703125 25.609375 65.109375 
Q 23.1875 67.53125 19.828125 67.53125 
Q 16.40625 67.53125 13.984375 65.109375 
Q 11.578125 62.703125 11.578125 59.28125 
z
" id="ArialMT-b0"/>
      <path d="M 12.359375 -21.046875 
L 6.0625 -21.046875 
Q 20.65625 2.390625 20.65625 25.875 
Q 20.65625 35.0625 18.5625 44.09375 
Q 16.890625 51.421875 13.921875 58.15625 
Q 12.015625 62.546875 6.0625 72.796875 
L 12.359375 72.796875 
Q 21.53125 60.546875 25.921875 48.1875 
Q 29.6875 37.546875 29.6875 25.921875 
Q 29.6875 12.75 24.625 0.4375 
Q 19.578125 -11.859375 12.359375 -21.046875 
z
" id="ArialMT-29"/>
     </defs>
     <g transform="translate(14.479687 249.933054)rotate(-90)scale(0.1 -0.1)">
      <use xlink:href="#ArialMT-41"/>
      <use x="66.699219" xlink:href="#ArialMT-6e"/>
      <use x="122.314453" xlink:href="#ArialMT-67"/>
      <use x="177.929688" xlink:href="#ArialMT-6c"/>
      <use x="200.146484" xlink:href="#ArialMT-65"/>
      <use x="255.761719" xlink:href="#ArialMT-28"/>
      <use x="289.0625" xlink:href="#ArialMT-b0"/>
      <use x="329.052734" xlink:href="#ArialMT-29"/>
     </g>
    </g>
   </g>
   <g id="line2d_14">
    <path clip-path="url(#pf38c7d9ba9)" d="M 46.103977 269.737854 
L 46.315492 269.800733 
L 46.527007 269.626782 
L 46.738521 269.776895 
L 47.373066 269.39512 
L 47.58458 269.667008 
L 47.796095 269.544291 
L 48.642154 269.749803 
L 48.853669 269.702097 
L 49.488213 269.916487 
L 49.699727 269.593791 
L 49.911242 269.723198 
L 50.122757 269.594278 
L 50.545786 269.873706 
L 50.968816 269.618177 
L 51.391845 269.683975 
L 51.60336 269.42656 
L 52.026389 269.696988 
L 52.237904 269.500841 
L 52.449419 269.894838 
L 52.660934 269.556696 
L 52.872448 269.729735 
L 53.083963 269.528145 
L 53.295478 269.740043 
L 53.506992 269.658616 
L 53.718507 269.818459 
L 53.930022 269.703586 
L 54.141537 269.775344 
L 54.353051 269.595099 
L 54.564566 269.781273 
L 55.833654 269.48576 
L 56.045169 269.679961 
L 56.256684 269.579045 
L 56.679713 269.814902 
L 56.891228 269.667039 
L 57.314257 269.86571 
L 57.525772 269.66792 
L 58.160316 269.604616 
L 58.371831 269.894443 
L 58.583346 269.638792 
L 58.79486 269.892649 
L 59.21789 269.490929 
L 59.429405 269.799182 
L 59.852434 269.591754 
L 60.486978 269.718698 
L 60.698493 269.501966 
L 61.544552 269.450793 
L 61.756066 269.72557 
L 61.967581 269.375904 
L 62.390611 269.5667 
L 62.602125 269.453165 
L 62.81364 269.735269 
L 63.025155 269.548031 
L 63.448184 269.544139 
L 63.659699 269.702978 
L 63.871214 269.453773 
L 64.082728 269.435682 
L 64.294243 269.716266 
L 64.505758 269.593487 
L 65.140302 269.722742 
L 65.351817 269.36438 
L 65.563331 269.400441 
L 65.774846 269.751111 
L 65.986361 269.729979 
L 66.197876 269.546146 
L 66.620905 269.804868 
L 67.043934 269.595433 
L 67.255449 269.745729 
L 67.466964 269.419263 
L 67.678479 268.734556 
L 68.101508 265.424287 
L 69.370596 256.15693 
L 69.793626 252.037443 
L 71.697258 241.386688 
L 72.966346 237.7768 
L 73.177861 236.532933 
L 73.600891 235.348874 
L 73.812405 234.60664 
L 74.02392 234.359016 
L 74.658464 233.205454 
L 75.081494 231.582093 
L 75.927553 230.410378 
L 76.139067 230.767007 
L 76.562097 230.105166 
L 76.773611 230.363949 
L 77.196641 229.815764 
L 77.408156 229.768301 
L 77.61967 229.430615 
L 78.0427 229.720655 
L 78.254214 229.150913 
L 78.465729 229.467284 
L 78.677244 229.333834 
L 78.888759 229.34402 
L 79.311788 228.935124 
L 79.523303 229.187643 
L 79.734817 229.085602 
L 79.946332 229.347395 
L 80.157847 229.014027 
L 80.369362 229.342682 
L 80.580876 229.367645 
L 80.792391 229.587387 
L 81.003906 229.291783 
L 81.426935 229.447734 
L 81.849965 230.110973 
L 82.061479 229.94359 
L 82.272994 230.095679 
L 82.484509 230.645019 
L 82.696024 230.834447 
L 82.907538 230.735111 
L 83.330568 231.297982 
L 83.542082 231.228079 
L 83.965112 231.810957 
L 84.176627 232.111365 
L 84.388141 231.947265 
L 84.599656 232.338131 
L 84.811171 232.306053 
L 85.445715 233.228501 
L 85.65723 233.415101 
L 85.868744 233.070087 
L 86.080259 233.431763 
L 86.291774 233.390594 
L 86.714803 234.046141 
L 86.926318 234.039391 
L 87.349347 234.41554 
L 87.983891 235.016235 
L 88.195406 234.852896 
L 88.406921 235.460311 
L 89.041465 235.571535 
L 89.25298 235.868994 
L 89.464495 236.563217 
L 89.676009 236.55817 
L 90.099039 236.83924 
L 90.310553 236.863778 
L 91.156612 237.696043 
L 91.791156 238.066962 
L 92.002671 238.516419 
L 92.214186 238.47753 
L 92.425701 238.777695 
L 92.637215 238.606055 
L 93.271759 239.139219 
L 93.483274 239.100665 
L 93.694789 239.823348 
L 93.906304 239.973613 
L 94.117818 239.784307 
L 94.329333 240.398046 
L 94.540848 240.309018 
L 94.752362 240.495101 
L 94.963877 240.35186 
L 95.386907 241.048272 
L 95.598421 241.058945 
L 95.809936 240.948329 
L 96.021451 241.385654 
L 96.44448 241.68217 
L 96.86751 241.729999 
L 97.079024 242.080607 
L 97.290539 242.117459 
L 97.502054 241.977805 
L 97.925083 242.335072 
L 98.136598 242.210257 
L 98.348113 242.638096 
L 98.559627 242.395458 
L 98.771142 242.547061 
L 99.194172 242.976541 
L 99.405686 242.787418 
L 99.617201 243.227997 
L 100.04023 243.258007 
L 100.251745 243.458563 
L 100.46326 243.911547 
L 100.674775 243.665839 
L 101.097804 243.893821 
L 101.309319 243.791871 
L 101.732348 244.546297 
L 101.943863 244.380312 
L 102.155378 244.793952 
L 102.366892 244.263007 
L 102.578407 245.073502 
L 102.789922 244.769353 
L 103.001436 244.876686 
L 103.212951 245.279379 
L 103.424466 245.286585 
L 103.635981 245.129083 
L 103.847495 245.231794 
L 104.05901 244.967173 
L 104.270525 245.589031 
L 104.48204 245.230152 
L 104.693554 245.541658 
L 104.905069 245.490334 
L 105.328098 245.82285 
L 105.539613 245.855719 
L 105.751128 245.579909 
L 105.962643 246.065853 
L 106.174157 245.641146 
L 106.385672 245.967734 
L 106.597187 246.062417 
L 106.808701 245.860371 
L 107.231731 246.420323 
L 107.443246 246.063694 
L 107.65476 246.144117 
L 107.866275 246.384839 
L 108.07779 246.347562 
L 108.289304 246.022342 
L 108.712334 246.699538 
L 108.923849 246.795924 
L 109.135363 246.520023 
L 109.558393 246.6307 
L 109.769907 246.508864 
L 109.981422 246.67716 
L 110.615966 246.581078 
L 110.827481 246.766826 
L 111.67354 246.725261 
L 111.885055 246.865401 
L 112.096569 246.590108 
L 112.308084 246.951267 
L 112.942628 246.881486 
L 113.154143 247.203452 
L 113.577172 247.15456 
L 114.000202 247.040325 
L 114.211717 247.393579 
L 114.423231 247.148235 
L 114.634746 247.21382 
L 114.846261 247.64394 
L 115.057775 247.534479 
L 115.26929 247.739718 
L 115.69232 247.825036 
L 115.903834 247.60572 
L 116.115349 247.83358 
L 116.326864 247.604108 
L 116.538378 247.841698 
L 116.749893 247.70989 
L 116.961408 247.891837 
L 117.172923 247.926013 
L 117.384437 247.691068 
L 117.595952 248.057822 
L 118.018981 247.990534 
L 118.230496 248.21052 
L 118.442011 248.074393 
L 118.653526 247.786299 
L 118.86504 248.171692 
L 119.711099 248.69172 
L 120.134129 248.198084 
L 120.557158 248.481647 
L 120.768673 248.196989 
L 120.980188 248.497397 
L 121.191702 248.561219 
L 121.403217 248.859864 
L 121.614732 248.958987 
L 122.037761 248.752532 
L 122.249276 249.110468 
L 122.460791 249.127221 
L 122.672305 248.887564 
L 122.88382 249.15334 
L 123.095335 249.005599 
L 123.306849 249.03871 
L 123.518364 248.952358 
L 124.152908 249.224368 
L 124.364423 249.525506 
L 124.575938 249.158722 
L 125.633511 249.154799 
L 125.845026 249.458005 
L 126.056541 249.308531 
L 126.268056 249.406072 
L 126.47957 249.717761 
L 126.691085 249.416623 
L 127.114114 249.579902 
L 127.325629 249.927956 
L 127.748659 249.7357 
L 127.960173 249.717427 
L 128.383203 250.085336 
L 128.594717 249.837833 
L 128.806232 250.244692 
L 129.017747 250.013487 
L 129.229262 250.177921 
L 129.440776 250.075119 
L 129.652291 250.232895 
L 129.863806 250.071197 
L 130.07532 250.103853 
L 130.286835 250.435275 
L 130.49835 250.55331 
L 130.709865 250.224563 
L 130.921379 250.468083 
L 131.132894 250.52856 
L 131.344409 250.777096 
L 131.555923 250.460907 
L 131.978953 250.806954 
L 132.401982 250.521749 
L 132.825012 250.842955 
L 133.036526 250.583898 
L 133.248041 250.829211 
L 133.671071 250.96026 
L 134.0941 250.79315 
L 134.305615 250.839519 
L 134.728644 251.377639 
L 135.151674 250.989237 
L 135.574703 251.227131 
L 135.786218 251.111893 
L 136.209247 251.221506 
L 136.420762 251.169086 
L 136.843791 251.290314 
L 137.266821 251.23753 
L 137.478336 251.52909 
L 137.901365 251.216063 
L 138.11288 251.451312 
L 138.324394 251.241939 
L 138.958939 251.240601 
L 139.170453 251.551986 
L 139.593483 251.600908 
L 140.016512 251.391656 
L 140.228027 251.575155 
L 141.285601 251.651716 
L 141.497115 251.659622 
L 141.70863 251.520728 
L 141.920145 252.038963 
L 142.343174 251.6595 
L 142.554689 252.122762 
L 142.977718 251.468491 
L 143.189233 251.945679 
L 143.400748 252.052494 
L 143.823777 251.849961 
L 144.035292 251.891009 
L 144.246807 252.279016 
L 144.458321 252.069156 
L 144.669836 252.139333 
L 144.881351 251.88958 
L 145.092865 252.253871 
L 145.30438 251.95325 
L 145.72741 252.278925 
L 145.938924 251.878117 
L 146.573468 252.259466 
L 146.784983 252.104518 
L 147.208013 252.378595 
L 147.419527 252.405869 
L 147.631042 252.132309 
L 147.842557 252.423748 
L 148.054071 252.041639 
L 148.265586 252.308997 
L 148.477101 252.313436 
L 148.688616 252.523418 
L 148.90013 252.302581 
L 149.111645 252.480485 
L 149.534675 252.150431 
L 149.957704 252.424052 
L 150.169219 252.494715 
L 150.380733 252.792782 
L 150.592248 252.487326 
L 151.015278 252.708497 
L 151.226792 252.706247 
L 151.438307 252.439133 
L 151.649822 252.533664 
L 151.861336 252.975246 
L 152.072851 252.983456 
L 152.495881 252.645344 
L 152.707395 252.706004 
L 152.91891 253.015777 
L 153.130425 252.616976 
L 153.553454 252.840884 
L 153.764969 252.573283 
L 153.976484 252.75146 
L 154.187998 252.623027 
L 154.399513 252.972601 
L 155.034057 252.633365 
L 155.245572 252.595479 
L 156.091631 252.940462 
L 156.303146 252.766086 
L 156.726175 252.801174 
L 156.93769 252.768092 
L 157.149204 252.854809 
L 157.360719 253.067528 
L 157.572234 252.737443 
L 157.783749 253.085254 
L 157.995263 252.816285 
L 158.206778 252.865695 
L 158.629807 253.230137 
L 159.052837 252.843833 
L 159.264352 252.976098 
L 159.687381 252.870347 
L 159.898896 253.22059 
L 160.11041 253.011733 
L 160.53344 253.397247 
L 160.744955 253.373227 
L 160.956469 253.546022 
L 161.167984 253.238438 
L 161.591013 253.46414 
L 161.802528 253.774856 
L 162.014043 253.183404 
L 162.437072 253.660622 
L 162.648587 253.008267 
L 163.071616 253.412633 
L 163.283131 253.248046 
L 163.494646 253.523796 
L 163.706161 253.183799 
L 163.917675 253.091852 
L 164.55222 253.571685 
L 164.763734 253.401687 
L 164.975249 253.383169 
L 165.186764 253.579925 
L 165.609793 253.614466 
L 165.821308 253.73393 
L 166.032823 253.392656 
L 166.244337 253.390011 
L 166.455852 253.516985 
L 166.667367 253.402781 
L 166.878881 253.50011 
L 167.090396 253.26708 
L 167.513426 253.576307 
L 167.72494 253.516134 
L 167.936455 253.982405 
L 168.14797 253.511938 
L 168.359484 253.744967 
L 168.994029 253.651317 
L 169.205543 253.836245 
L 169.417058 253.695801 
L 169.628573 253.930077 
L 169.840087 253.752325 
L 170.051602 254.216286 
L 170.263117 253.62979 
L 170.474632 253.653963 
L 170.686146 254.090954 
L 171.320691 253.69048 
L 171.955235 253.88681 
L 172.166749 253.84634 
L 172.589779 254.019014 
L 172.801294 253.751443 
L 173.012808 253.926824 
L 173.224323 253.818458 
L 173.647352 254.379352 
L 174.493411 254.072528 
L 174.916441 254.769943 
L 175.33947 254.894941 
L 175.550985 255.329865 
L 175.7625 255.390342 
L 176.185529 256.211326 
L 176.397044 256.17566 
L 176.608558 256.736281 
L 176.820073 256.746832 
L 177.877647 257.821369 
L 178.089161 257.32901 
L 178.300676 257.682902 
L 178.93522 258.126916 
L 179.146735 257.871022 
L 179.35825 257.897627 
L 179.781279 258.215519 
L 180.204309 258.075561 
L 180.415823 258.207035 
L 180.627338 258.53937 
L 181.473397 258.438757 
L 181.684912 258.792619 
L 181.896426 258.608847 
L 182.107941 258.711314 
L 182.319456 258.616935 
L 182.530971 258.800068 
L 182.742485 258.533562 
L 182.954 258.640894 
L 183.165515 258.888519 
L 184.011574 258.641594 
L 184.223088 258.945742 
L 184.434603 258.901289 
L 184.857632 258.954955 
L 185.069147 258.914789 
L 185.492177 258.976908 
L 185.703691 259.027868 
L 185.915206 258.900286 
L 186.338236 259.110815 
L 186.54975 259.480183 
L 186.97278 258.932607 
L 187.184294 259.140643 
L 187.395809 259.05426 
L 188.030353 259.209694 
L 188.241868 259.120119 
L 188.453383 259.164724 
L 188.876412 259.536099 
L 189.087927 259.105402 
L 189.299442 259.347462 
L 189.510956 259.375223 
L 189.722471 259.609955 
L 189.933986 259.361692 
L 190.1455 259.676939 
L 190.991559 259.665658 
L 191.203074 259.803001 
L 191.414589 259.369081 
L 191.837618 259.761831 
L 192.049133 259.627347 
L 192.895192 259.901302 
L 193.106706 259.665688 
L 193.318221 259.644374 
L 193.529736 259.990482 
L 193.952765 259.754625 
L 193.952765 259.754625 
" style="fill:none;stroke:#000000;stroke-linecap:square;stroke-width:1.5;"/>
   </g>
   <g id="line2d_15">
    <path clip-path="url(#pf38c7d9ba9)" d="M 46.103977 293.589375 
L 67.149692 293.589375 
L 67.361206 281.633363 
L 172.907051 281.633363 
L 173.118566 293.589375 
L 194.058523 293.589375 
L 194.058523 293.589375 
" style="fill:none;stroke:#00ffff;stroke-linecap:square;stroke-width:2;"/>
   </g>
   <g id="patch_7">
    <path d="M 38.70625 293.589375 
L 38.70625 170.04392 
" style="fill:none;stroke:#000000;stroke-linecap:square;stroke-linejoin:miter;stroke-width:0.8;"/>
   </g>
  </g>
  <g id="axes_4">
   <g id="patch_8">
    <path d="M 266.55625 293.589375 
L 429.30625 293.589375 
L 429.30625 170.04392 
L 266.55625 170.04392 
z
" style="fill:#ffffff;"/>
   </g>
   <g id="matplotlib.axis_7"/>
   <g id="matplotlib.axis_8">
    <g id="ytick_10">
     <g id="line2d_16">
      <g>
       <use style="stroke:#000000;stroke-width:0.8;" x="266.55625" xlink:href="#m80ba7110c2" y="269.677352"/>
      </g>
     </g>
     <g id="text_13">
      <!-- 0 -->
      <g transform="translate(253.995313 273.256258)scale(0.1 -0.1)">
       <use xlink:href="#ArialMT-30"/>
      </g>
     </g>
    </g>
    <g id="ytick_11">
     <g id="line2d_17">
      <g>
       <use style="stroke:#000000;stroke-width:0.8;" x="266.55625" xlink:href="#m80ba7110c2" y="229.823979"/>
      </g>
     </g>
     <g id="text_14">
      <!-- 10 -->
      <g transform="translate(248.434375 233.402885)scale(0.1 -0.1)">
       <use xlink:href="#ArialMT-31"/>
       <use x="55.615234" xlink:href="#ArialMT-30"/>
      </g>
     </g>
    </g>
    <g id="ytick_12">
     <g id="line2d_18">
      <g>
       <use style="stroke:#000000;stroke-width:0.8;" x="266.55625" xlink:href="#m80ba7110c2" y="189.970607"/>
      </g>
     </g>
     <g id="text_15">
      <!-- 20 -->
      <g transform="translate(248.434375 193.549513)scale(0.1 -0.1)">
       <use xlink:href="#ArialMT-32"/>
       <use x="55.615234" xlink:href="#ArialMT-30"/>
      </g>
     </g>
    </g>
   </g>
   <g id="line2d_19">
    <path clip-path="url(#pc0c14f624f)" d="M 273.953977 267.232422 
L 274.165492 266.332505 
L 274.377007 266.973305 
L 274.588521 271.223233 
L 274.800036 270.092201 
L 275.011551 272.084383 
L 275.43458 270.87156 
L 275.646095 266.073235 
L 275.85761 265.835067 
L 276.069124 269.641376 
L 276.280639 266.771715 
L 276.492154 271.011518 
L 276.703669 269.304024 
L 276.915183 268.980355 
L 277.126698 268.373062 
L 277.338213 270.01269 
L 277.761242 266.643798 
L 277.972757 272.520766 
L 278.395786 271.747549 
L 278.607301 266.534459 
L 278.818816 265.575646 
L 279.030331 274.041538 
L 279.241845 272.206614 
L 279.664875 272.716427 
L 279.876389 271.825752 
L 280.087904 271.927125 
L 280.722448 274.548857 
L 280.933963 273.622973 
L 281.780022 267.741627 
L 282.203051 271.66895 
L 282.414566 272.208165 
L 282.626081 267.852547 
L 282.837595 266.514179 
L 283.47214 272.392758 
L 283.683654 271.836242 
L 283.895169 270.561331 
L 284.106684 271.606314 
L 284.318198 268.561334 
L 284.529713 271.045238 
L 284.741228 268.265 
L 284.952743 269.839195 
L 285.164257 268.644616 
L 285.798801 272.984635 
L 286.010316 272.880405 
L 286.221831 273.67296 
L 286.64486 265.073374 
L 286.856375 266.296474 
L 287.06789 271.334943 
L 287.279405 270.476924 
L 287.490919 272.545881 
L 287.702434 271.855763 
L 287.913949 270.369866 
L 288.125463 267.591696 
L 288.336978 271.527107 
L 288.548493 267.6519 
L 288.760008 272.531955 
L 288.971522 269.170604 
L 289.183037 271.476451 
L 289.394552 271.851111 
L 289.606066 269.17781 
L 289.817581 273.029697 
L 290.029096 273.622274 
L 290.240611 275.626162 
L 290.452125 276.153701 
L 290.66364 275.611263 
L 290.875155 277.426058 
L 291.298184 272.789522 
L 291.509699 274.302541 
L 291.721214 270.925348 
L 291.932728 273.261267 
L 292.144243 269.866925 
L 292.355758 271.97775 
L 292.567272 268.779313 
L 292.778787 273.981395 
L 292.990302 267.660109 
L 293.413331 268.308845 
L 293.624846 272.31945 
L 293.836361 267.720738 
L 294.047876 258.152912 
L 294.25939 261.068516 
L 294.470905 250.741673 
L 294.893934 247.451045 
L 295.739993 218.837934 
L 295.951508 213.54956 
L 296.163023 203.241811 
L 296.586052 198.00534 
L 296.797567 194.080419 
L 297.009082 192.655851 
L 297.220596 189.681746 
L 297.432111 189.324388 
L 297.643626 187.614888 
L 297.85514 187.538205 
L 298.066655 189.856275 
L 298.27817 187.339625 
L 298.701199 192.19718 
L 298.912714 192.4362 
L 299.124229 196.475233 
L 299.335743 197.470443 
L 299.547258 197.453993 
L 299.758773 201.028093 
L 299.970288 198.679678 
L 300.181802 202.989687 
L 300.393317 200.005975 
L 300.604832 200.061192 
L 300.816346 200.387567 
L 301.239376 203.125662 
L 301.450891 203.21697 
L 301.662405 202.29066 
L 301.87392 204.356393 
L 302.085435 202.321157 
L 302.29695 205.273551 
L 302.508464 205.34987 
L 302.719979 206.885966 
L 302.931494 205.916024 
L 303.143008 207.01069 
L 303.354523 205.703214 
L 303.566038 205.746056 
L 304.623611 211.572854 
L 304.835126 212.319041 
L 305.046641 212.268263 
L 305.46967 216.386686 
L 305.681185 216.474559 
L 305.8927 217.281283 
L 306.104214 217.321753 
L 306.315729 218.658297 
L 306.527244 218.316902 
L 306.738759 217.025085 
L 306.950273 217.591573 
L 307.161788 217.768869 
L 307.373303 216.356433 
L 307.584817 218.254813 
L 307.796332 217.712102 
L 308.007847 217.586739 
L 308.219362 217.18739 
L 308.430876 216.004699 
L 308.642391 215.620888 
L 308.853906 216.91231 
L 309.065421 215.806241 
L 309.276935 217.132569 
L 309.48845 216.175458 
L 309.699965 217.554874 
L 309.911479 217.66403 
L 310.122994 216.969321 
L 310.334509 216.93627 
L 310.546024 219.175103 
L 310.969053 216.05797 
L 311.180568 217.709152 
L 311.392082 214.722035 
L 311.603597 214.579371 
L 311.815112 215.470015 
L 312.026627 214.039092 
L 312.238141 213.683223 
L 312.661171 215.771548 
L 312.872685 215.43815 
L 313.0842 214.736842 
L 313.295715 216.27677 
L 313.50723 216.357254 
L 313.718744 219.420142 
L 313.930259 218.329277 
L 314.141774 221.094737 
L 314.353288 217.755126 
L 314.564803 219.216455 
L 315.833891 214.057883 
L 316.256921 215.389714 
L 316.67995 214.462552 
L 317.10298 216.333598 
L 317.314495 215.198249 
L 317.737524 214.287567 
L 317.949039 217.008392 
L 318.160553 216.159647 
L 318.372068 213.30303 
L 318.583583 215.569898 
L 318.795098 213.123211 
L 319.006612 213.831907 
L 319.218127 214.088197 
L 319.641156 211.697852 
L 319.852671 212.549486 
L 320.064186 211.52305 
L 320.275701 212.414697 
L 320.487215 211.380447 
L 321.121759 213.381933 
L 321.333274 213.330852 
L 321.544789 214.045416 
L 321.756304 216.010933 
L 321.967818 213.90029 
L 322.179333 213.794265 
L 322.602362 216.299635 
L 322.813877 215.757045 
L 323.025392 214.885587 
L 323.236907 215.990166 
L 323.448421 216.398727 
L 323.659936 218.309696 
L 324.082966 217.258631 
L 324.29448 218.488147 
L 324.71751 216.01221 
L 324.929024 217.130957 
L 325.140539 214.987811 
L 325.352054 215.757653 
L 325.563569 215.23957 
L 325.775083 215.530401 
L 325.986598 213.893418 
L 326.198113 214.517617 
L 326.832657 214.274979 
L 327.044172 213.489205 
L 327.255686 215.255868 
L 327.467201 214.707045 
L 327.678716 215.068842 
L 327.89023 217.925823 
L 328.101745 217.416649 
L 328.31326 216.530536 
L 328.524775 216.865911 
L 328.736289 216.498154 
L 328.947804 216.942868 
L 329.159319 218.589458 
L 329.370833 217.528117 
L 329.582348 217.352949 
L 329.793863 216.835505 
L 330.005378 218.822549 
L 330.428407 217.561137 
L 330.639922 215.865745 
L 330.851436 217.488133 
L 331.062951 214.884431 
L 331.274466 215.175384 
L 331.485981 214.264824 
L 331.697495 212.392805 
L 331.90901 212.305602 
L 332.120525 211.599824 
L 332.33204 212.944821 
L 332.543554 211.267824 
L 332.755069 212.921986 
L 332.966584 210.820131 
L 333.178098 212.31521 
L 333.389613 216.225931 
L 333.601128 212.106961 
L 333.812643 211.749238 
L 334.024157 213.824792 
L 334.235672 214.542945 
L 334.447187 215.877664 
L 334.870216 214.13262 
L 335.081731 215.59708 
L 335.293246 215.358031 
L 335.50476 215.68845 
L 335.716275 216.290179 
L 335.92779 216.329858 
L 336.139304 216.693936 
L 336.350819 216.461424 
L 336.562334 218.662523 
L 337.196878 215.60529 
L 337.619907 215.05893 
L 337.831422 214.804829 
L 338.042937 216.204708 
L 338.254452 215.367791 
L 338.465966 216.61856 
L 338.677481 215.180583 
L 338.888996 215.76042 
L 339.312025 213.299686 
L 339.52354 213.351163 
L 339.735055 212.244456 
L 339.946569 214.361788 
L 340.158084 211.228236 
L 340.369599 210.877932 
L 340.581114 211.797826 
L 340.792628 211.487171 
L 341.004143 210.58628 
L 341.215658 210.466847 
L 341.638687 213.371747 
L 342.061717 215.426869 
L 342.273231 216.99328 
L 342.484746 217.413244 
L 342.696261 218.211941 
L 342.907775 217.488285 
L 343.11929 219.161451 
L 343.330805 219.657429 
L 343.753834 218.306625 
L 343.965349 219.544015 
L 344.176864 216.786917 
L 344.388378 217.885232 
L 344.599893 216.301064 
L 344.811408 216.375527 
L 345.022923 217.891252 
L 345.234437 217.270945 
L 345.868981 218.931766 
L 346.080496 217.226127 
L 346.292011 216.915533 
L 346.71504 214.821857 
L 346.926555 215.702588 
L 347.13807 215.508843 
L 347.349585 215.117947 
L 347.561099 214.245212 
L 347.772614 215.802806 
L 347.984129 215.449582 
L 348.195643 214.611023 
L 348.407158 215.150877 
L 348.618673 214.868347 
L 348.830188 216.978199 
L 349.041702 216.482282 
L 349.253217 214.175005 
L 349.464732 214.83864 
L 349.676246 216.234141 
L 349.887761 214.755298 
L 350.099276 215.140022 
L 350.310791 216.002206 
L 350.73382 216.787312 
L 350.945335 216.034984 
L 351.156849 218.299236 
L 351.368364 216.848853 
L 351.579879 217.077687 
L 351.791394 215.807002 
L 352.002908 215.557583 
L 352.214423 214.673203 
L 352.425938 214.921131 
L 352.637452 214.179688 
L 353.060482 216.022912 
L 353.271997 214.977807 
L 353.483511 214.871539 
L 353.906541 215.970584 
L 354.118056 216.071683 
L 354.32957 215.25456 
L 354.541085 217.295179 
L 355.175629 213.15763 
L 355.387144 214.645838 
L 355.810173 212.908456 
L 356.233203 212.330017 
L 356.444717 214.967561 
L 356.656232 214.789353 
L 357.079262 216.229398 
L 357.290776 221.231775 
L 357.502291 217.977027 
L 357.713806 217.004652 
L 357.92532 218.022179 
L 358.136835 220.472302 
L 358.34835 219.558975 
L 358.559865 219.182005 
L 358.771379 219.633286 
L 359.194409 218.779677 
L 359.405923 217.328108 
L 359.617438 217.434376 
L 359.828953 215.928928 
L 360.251982 217.829681 
L 360.463497 215.517934 
L 360.675012 214.667122 
L 360.886526 214.437559 
L 361.309556 215.777204 
L 361.521071 213.89132 
L 361.732585 215.324554 
L 361.9441 215.848414 
L 362.155615 215.997919 
L 362.36713 218.090227 
L 362.578644 216.887499 
L 363.001674 219.289976 
L 363.213188 219.195383 
L 363.424703 218.675081 
L 363.636218 218.542056 
L 363.847733 217.686287 
L 364.059247 218.105339 
L 364.270762 218.825589 
L 364.482277 220.072406 
L 364.693791 218.948185 
L 364.905306 218.448467 
L 365.328336 216.925992 
L 365.751365 219.821832 
L 365.96288 219.598989 
L 366.174394 219.758376 
L 366.385909 219.761872 
L 366.597424 218.722058 
L 366.808939 219.945006 
L 367.020453 219.869174 
L 367.231968 218.85934 
L 367.443483 220.213002 
L 367.654997 219.084737 
L 367.866512 218.789224 
L 368.289542 220.298959 
L 368.712571 218.95755 
L 368.924086 219.531093 
L 369.347115 215.071427 
L 369.770145 214.193249 
L 369.981659 215.273138 
L 370.193174 213.886668 
L 370.404689 213.682463 
L 370.616204 214.006831 
L 370.827718 213.32246 
L 371.039233 214.268685 
L 371.250748 214.522543 
L 371.462262 213.799525 
L 371.885292 216.265094 
L 372.096807 215.233033 
L 372.308321 216.893854 
L 372.519836 214.996811 
L 372.731351 216.800326 
L 372.942865 216.511076 
L 373.15438 215.550134 
L 373.365895 215.215823 
L 373.57741 215.760694 
L 374.000439 216.257918 
L 374.211954 215.178303 
L 374.423468 215.342402 
L 374.634983 215.842971 
L 374.846498 215.070606 
L 375.058013 215.942611 
L 375.692557 220.562941 
L 375.904071 220.980047 
L 376.115586 221.997239 
L 376.327101 220.767146 
L 376.538616 222.30458 
L 376.75013 221.68029 
L 376.961645 222.225373 
L 377.17316 222.327993 
L 377.384675 223.699989 
L 377.596189 222.370378 
L 377.807704 224.443743 
L 378.230733 223.753747 
L 378.442248 226.310502 
L 378.653763 223.521173 
L 379.076792 221.86841 
L 379.288307 223.346888 
L 379.711336 220.00226 
L 379.922851 220.574647 
L 380.345881 219.820069 
L 380.557395 217.706659 
L 380.980425 217.368335 
L 381.191939 216.466653 
L 381.403454 217.944888 
L 381.614969 215.882134 
L 381.826484 215.68924 
L 382.037998 214.622699 
L 382.249513 214.353517 
L 382.672542 216.824741 
L 382.884057 215.22309 
L 383.095572 217.723048 
L 383.307087 216.475319 
L 383.518601 217.573938 
L 383.730116 215.602675 
L 384.153146 218.324929 
L 384.36466 217.513674 
L 384.576175 219.751291 
L 384.78769 218.731848 
L 384.999204 221.048216 
L 385.210719 219.016932 
L 385.633749 221.705648 
L 385.845263 220.017311 
L 386.056778 220.979682 
L 386.479807 221.555566 
L 386.902837 219.452433 
L 387.114352 220.003598 
L 387.325866 218.989902 
L 387.537381 218.855083 
L 387.748896 218.351169 
L 387.96041 217.53961 
L 388.171925 219.13366 
L 388.38344 217.285814 
L 388.594955 218.933438 
L 388.806469 216.664868 
L 389.017984 216.971236 
L 389.229499 216.823008 
L 389.441013 216.379359 
L 389.652528 216.910029 
L 389.864043 218.815373 
L 390.075558 218.635249 
L 390.498587 220.296161 
L 390.710102 218.467501 
L 390.921616 218.604905 
L 391.133131 217.740744 
L 391.344646 218.503532 
L 391.556161 216.45814 
L 391.767675 216.565624 
L 391.97919 215.99573 
L 392.190705 216.222131 
L 392.40222 214.642676 
L 392.613734 214.114711 
L 393.036764 214.534705 
L 393.248278 214.333237 
L 393.459793 212.958108 
L 393.671308 216.141464 
L 394.094337 215.348848 
L 394.305852 215.55135 
L 394.517367 214.511384 
L 394.728881 216.147454 
L 394.940396 215.428268 
L 395.151911 217.084589 
L 395.363426 216.795795 
L 395.786455 219.5279 
L 395.99797 218.997503 
L 396.209484 220.316655 
L 396.420999 220.348125 
L 396.632514 222.45746 
L 396.844029 220.998442 
L 397.055543 222.033787 
L 397.267058 221.44492 
L 397.478573 224.785139 
L 397.690087 223.507004 
L 398.113117 222.595076 
L 398.324632 221.645232 
L 398.536146 221.958016 
L 398.747661 221.594637 
L 398.959176 220.303489 
L 399.170691 222.076659 
L 399.382205 221.143964 
L 399.59372 220.941006 
L 399.805235 219.481076 
L 400.016749 219.942817 
L 400.228264 220.724973 
L 400.439779 222.159697 
L 400.651294 222.568258 
L 401.074323 225.927056 
L 401.285838 231.015451 
L 401.497352 228.553318 
L 401.708867 230.281488 
L 401.920382 236.923007 
L 402.131897 237.808573 
L 402.977955 244.046183 
L 403.18947 247.135799 
L 403.400985 244.186779 
L 403.824014 253.952303 
L 404.035529 248.425761 
L 404.247044 252.720203 
L 404.458558 252.210147 
L 404.670073 246.87735 
L 404.881588 256.694472 
L 405.093103 253.096869 
L 405.304617 256.766564 
L 405.516132 253.474751 
L 405.939161 256.645276 
L 406.150676 252.258948 
L 406.362191 252.130453 
L 406.573706 256.347148 
L 406.78522 254.083595 
L 406.996735 254.086453 
L 407.20825 258.568528 
L 407.419765 251.759869 
L 407.631279 251.121805 
L 408.054309 257.714797 
L 408.477338 249.721196 
L 408.688853 255.394294 
L 408.900368 264.315846 
L 409.323397 250.857853 
L 409.534912 257.576116 
L 409.746426 251.608205 
L 409.957941 260.237133 
L 410.169456 261.506267 
L 410.380971 261.452449 
L 410.592485 261.160767 
L 410.804 260.637241 
L 411.015515 251.376361 
L 411.227029 258.754489 
L 411.438544 259.093118 
L 411.650059 259.084695 
L 411.861574 259.586511 
L 412.073088 253.707385 
L 412.284603 258.801709 
L 412.496118 253.384476 
L 412.707632 258.148777 
L 412.919147 265.62469 
L 413.130662 266.128057 
L 413.342177 260.326556 
L 413.765206 265.009187 
L 413.976721 264.520689 
L 414.39975 264.565355 
L 414.82278 258.737766 
L 415.034294 258.942153 
L 415.245809 258.869393 
L 415.457324 266.055052 
L 415.668839 268.294555 
L 415.880353 265.247203 
L 416.303383 263.065685 
L 416.514897 267.142239 
L 416.726412 261.398114 
L 416.937927 263.899561 
L 417.149442 254.800044 
L 417.360956 259.096858 
L 417.572471 257.683722 
L 417.783986 258.141176 
L 417.9955 252.996195 
L 418.207015 256.09928 
L 418.41853 253.695496 
L 418.630045 264.345187 
L 418.841559 256.498872 
L 419.053074 258.635938 
L 419.264589 256.812112 
L 419.476103 257.307603 
L 419.687618 256.541805 
L 419.899133 256.656739 
L 420.110648 258.16772 
L 420.322162 256.990837 
L 420.533677 253.465082 
L 420.745192 258.673975 
L 420.956706 258.490902 
L 421.379736 250.558539 
L 421.591251 259.373185 
L 421.802765 262.748584 
L 421.802765 262.748584 
" style="fill:none;stroke:#000000;stroke-linecap:square;stroke-width:1.5;"/>
   </g>
   <g id="line2d_20">
    <path clip-path="url(#pc0c14f624f)" d="M 273.953977 293.589375 
L 294.999692 293.589375 
L 295.211206 281.633363 
L 400.757051 281.633363 
L 400.968566 293.589375 
L 421.908523 293.589375 
L 421.908523 293.589375 
" style="fill:none;stroke:#00ffff;stroke-linecap:square;stroke-width:2;"/>
   </g>
   <g id="patch_9">
    <path d="M 266.55625 293.589375 
L 266.55625 170.04392 
" style="fill:none;stroke:#000000;stroke-linecap:square;stroke-linejoin:miter;stroke-width:0.8;"/>
   </g>
  </g>
 </g>
 <defs>
  <clipPath id="paac5567063">
   <rect height="123.545455" width="162.75" x="38.70625" y="21.789375"/>
  </clipPath>
  <clipPath id="p27ddb11379">
   <rect height="123.545455" width="162.75" x="266.55625" y="21.789375"/>
  </clipPath>
  <clipPath id="pf38c7d9ba9">
   <rect height="123.545455" width="162.75" x="38.70625" y="170.04392"/>
  </clipPath>
  <clipPath id="pc0c14f624f">
   <rect height="123.545455" width="162.75" x="266.55625" y="170.04392"/>
  </clipPath>
 </defs>
</svg>
